<?xml version="1.0" standalone="no"?>
<!DOCTYPE svg PUBLIC "-//W3C//DTD SVG 20010904//EN"
 "http://www.w3.org/TR/2001/REC-SVG-20010904/DTD/svg10.dtd">
<svg version="1.0" xmlns="http://www.w3.org/2000/svg"
 width="265.000000pt" height="265.000000pt" viewBox="0 0 265.000000 265.000000"
 preserveAspectRatio="xMidYMid meet">
<metadata>
Created by potrace 1.14, written by Peter Selinger 2001-2017
</metadata>
<g transform="translate(0.000000,265.000000) scale(0.100000,-0.100000)"
fill="#000000" stroke="none">
<path d="M2015 2439 c-3 -4 9 -21 27 -38 l31 -30 34 36 c18 20 33 38 33 40 0
11 -50 -35 -55 -49 -5 -15 -8 -15 -30 4 -13 12 -22 25 -19 30 3 4 12 1 20 -7
22 -21 30 -19 11 3 -17 19 -44 25 -52 11z"/>
<path d="M2076 2438 c3 -4 11 -5 19 -1 21 7 19 12 -4 10 -11 0 -18 -5 -15 -9z"/>
<path d="M2126 2405 c-21 -24 -41 -47 -44 -50 -3 -3 -2 -5 1 -5 9 0 67 61 78
83 15 26 8 21 -35 -28z"/>
<path d="M2188 2443 c7 -3 16 -2 19 1 4 3 -2 6 -13 5 -11 0 -14 -3 -6 -6z"/>
<path d="M1009 2423 c-13 -16 -12 -17 4 -4 9 7 17 15 17 17 0 8 -8 3 -21 -13z"/>
<path d="M2221 2433 c4 -20 -2 -27 -12 -13 -9 13 -10 13 -6 0 4 -15 -75 -100
-94 -100 -5 0 -9 -5 -9 -11 0 -5 4 -8 9 -4 5 3 11 0 14 -7 2 -7 3 -5 2 4 -2 9
7 24 19 31 53 36 101 93 86 102 -6 3 -10 3 -9 -2z"/>
<path d="M893 2424 c3 -4 1 -16 -5 -27 -11 -21 -11 -21 -29 2 -11 13 -19 19
-19 14 0 -6 8 -19 18 -31 l18 -21 17 29 c20 33 21 40 5 40 -6 0 -8 -3 -5 -6z"/>
<path d="M950 2420 c-8 -5 -12 -11 -9 -14 2 -3 11 -1 19 4 8 5 12 11 9 14 -2
3 -11 1 -19 -4z"/>
<path d="M1030 2415 c-8 -9 -8 -15 -2 -15 6 0 9 -11 6 -25 -3 -17 1 -27 11
-31 15 -6 21 -24 7 -24 -4 0 -20 11 -35 25 -15 14 -27 22 -27 17 0 -4 14 -19
31 -31 24 -18 34 -20 42 -11 9 8 8 14 -5 24 -19 14 -25 32 -8 21 6 -3 10 -1
10 4 0 6 -4 11 -9 11 -5 0 -8 11 -6 25 3 29 2 30 -15 10z"/>
<path d="M1064 2415 c-7 -17 4 -37 16 -30 5 3 10 0 13 -7 2 -7 3 -6 2 2 0 8
-7 14 -14 12 -9 -2 -12 4 -8 18 6 23 -1 27 -9 5z"/>
<path d="M1951 2414 c0 -11 3 -14 6 -6 3 7 2 16 -1 19 -3 4 -6 -2 -5 -13z"/>
<path d="M1973 2410 c-1 -11 2 -20 5 -20 4 0 8 9 9 20 1 11 -2 20 -5 20 -4 0
-8 -9 -9 -20z"/>
<path d="M2170 2418 c0 -6 -18 -29 -41 -51 l-41 -40 -24 28 c-13 15 -24 24
-24 20 0 -5 10 -19 22 -32 12 -13 16 -23 10 -23 -7 0 -12 -5 -12 -11 0 -5 5
-7 10 -4 6 3 10 2 10 -4 0 -5 -5 -12 -10 -14 -6 -3 -5 -4 2 -3 7 2 13 10 13
19 0 8 14 26 30 38 53 41 88 89 65 89 -5 0 -10 -5 -10 -12z"/>
<path d="M865 2410 c3 -5 8 -10 11 -10 2 0 4 5 4 10 0 6 -5 10 -11 10 -5 0 -7
-4 -4 -10z"/>
<path d="M1095 2410 c3 -5 11 -10 17 -10 18 0 90 -79 83 -91 -4 -6 9 0 29 13
20 13 36 27 36 31 0 5 -5 5 -12 1 -8 -5 -9 -2 -5 9 4 10 2 17 -4 17 -6 0 -9
-9 -6 -20 3 -13 -1 -24 -14 -30 -13 -7 -19 -7 -19 0 0 5 5 10 10 10 6 0 10 5
10 12 0 9 -3 9 -12 0 -8 -8 -15 -7 -27 6 -37 41 -104 81 -86 52z"/>
<path d="M2000 2410 c0 -5 5 -10 11 -10 5 0 7 5 4 10 -3 6 -8 10 -11 10 -2 0
-4 -4 -4 -10z"/>
<path d="M770 2385 c-13 -14 -20 -25 -15 -25 4 0 16 10 27 22 18 21 19 21 36
4 16 -16 14 -20 -41 -73 -54 -50 -60 -54 -75 -39 -14 14 -14 17 3 36 18 20 18
21 -10 48 -16 15 -22 18 -14 7 8 -11 18 -23 23 -26 5 -4 -3 -20 -17 -35 -15
-15 -29 -25 -33 -21 -3 3 1 13 10 22 9 9 16 20 16 24 0 12 -29 47 -30 36 0 -6
5 -16 12 -23 9 -9 8 -16 -6 -30 -17 -16 -18 -16 -12 8 6 23 6 23 -5 5 -16 -27
-141 -150 -159 -158 -12 -4 -12 -6 1 -6 9 -1 48 31 88 70 39 40 71 66 71 59 0
-6 -25 -37 -55 -67 -30 -31 -55 -60 -55 -64 0 -5 -5 -8 -12 -6 -6 1 -13 -7
-15 -18 l-3 -20 9 20 c5 11 10 16 10 12 1 -4 28 20 61 55 33 34 60 56 60 48 0
-7 -21 -33 -46 -57 -26 -24 -42 -43 -35 -43 6 0 11 5 11 12 0 6 3 8 6 5 4 -4
20 8 35 26 16 17 29 26 29 20 0 -7 -9 -22 -20 -33 -11 -11 -16 -20 -12 -20 4
0 13 5 20 12 9 9 13 7 18 -5 3 -9 11 -17 17 -17 5 0 2 9 -8 20 -10 11 -16 23
-13 26 3 3 15 -7 27 -22 11 -15 21 -23 21 -18 0 5 -11 22 -25 38 -41 48 -28
54 16 8 23 -23 45 -42 49 -42 4 0 -14 23 -41 50 -27 28 -49 56 -49 62 0 7 36
-25 81 -70 45 -45 85 -82 90 -82 5 0 -26 34 -68 75 -42 41 -74 78 -70 81 4 4
24 -10 45 -32 75 -77 79 -80 102 -59 11 10 20 23 20 28 0 6 -9 0 -20 -13 l-19
-22 -38 36 -38 36 58 56 c32 31 61 53 65 50 3 -4 -18 -29 -47 -57 l-53 -50 23
-19 c12 -11 25 -20 29 -20 4 0 23 17 43 37 21 20 37 32 37 27 0 -6 -5 -15 -12
-22 -9 -9 -9 -12 -1 -12 7 0 14 9 18 20 3 10 20 31 37 45 l31 26 22 -25 c12
-14 26 -26 31 -26 4 0 -5 14 -21 30 -35 36 -21 40 19 5 16 -14 32 -25 35 -25
3 1 -10 14 -29 30 -36 31 -60 38 -60 18 0 -6 -3 -8 -6 -5 -4 4 -20 -8 -35 -26
-16 -17 -29 -26 -29 -19 0 6 9 21 20 32 11 11 16 20 12 20 -4 0 -13 -5 -20
-12 -21 -21 -13 7 8 30 12 12 16 22 11 22 -6 0 -15 -10 -22 -22 -11 -21 -12
-20 -46 15 -19 21 -38 37 -42 37 -4 0 -18 -11 -31 -25z m104 -61 c8 -22 10
-19 -34 -65 -38 -40 -42 -42 -57 -26 -15 15 -13 19 28 62 48 50 54 52 63 29z"/>
<path d="M822 2283 c-33 -36 -39 -51 -12 -29 26 21 64 66 54 65 -5 0 -24 -17
-42 -36z"/>
<path d="M915 2400 c-3 -5 -1 -10 4 -10 6 0 11 5 11 10 0 6 -2 10 -4 10 -3 0
-8 -4 -11 -10z"/>
<path d="M982 2402 c2 -8 8 -13 13 -12 5 1 13 -7 17 -17 7 -17 8 -17 5 0 -1
10 -6 17 -11 17 -5 -1 -13 4 -18 12 -8 11 -9 11 -6 0z"/>
<path d="M1174 2389 c14 -11 32 -18 39 -16 9 4 9 6 -1 6 -7 1 -20 8 -28 16 -9
8 -20 15 -26 15 -6 0 1 -9 16 -21z"/>
<path d="M2222 2381 c-12 -16 -35 -38 -52 -47 -16 -10 -30 -22 -30 -27 0 -4 5
-5 10 -2 6 3 10 2 10 -4 0 -5 -5 -12 -10 -14 -6 -3 -5 -4 2 -3 7 2 13 10 13
19 0 19 51 61 65 52 6 -4 7 1 3 11 -4 12 -3 15 5 10 8 -5 10 -1 5 11 -6 16 -5
17 13 3 18 -14 18 -14 5 3 -7 9 -14 17 -15 17 -1 0 -12 -13 -24 -29z"/>
<path d="M730 2390 c0 -5 5 -10 11 -10 5 0 7 5 4 10 -3 6 -8 10 -11 10 -2 0
-4 -4 -4 -10z"/>
<path d="M944 2385 c-10 -8 -14 -15 -9 -15 6 -1 1 -6 -10 -11 l-20 -9 20 3
c11 2 19 9 18 15 -4 15 10 15 25 0 9 -9 12 -9 12 0 0 7 -5 12 -11 12 -5 0 -7
5 -4 10 9 14 2 12 -21 -5z"/>
<path d="M1895 2380 c-3 -5 -3 -10 2 -10 4 0 1 -5 -7 -11 -10 -7 -11 -9 -2 -7
8 2 13 7 12 12 -1 5 4 13 12 17 9 6 9 9 1 9 -6 0 -15 -4 -18 -10z"/>
<path d="M1935 2380 c3 -5 8 -10 11 -10 2 0 4 5 4 10 0 6 -5 10 -11 10 -5 0
-7 -4 -4 -10z"/>
<path d="M2015 2380 c3 -5 8 -10 11 -10 2 0 4 5 4 10 0 6 -5 10 -11 10 -5 0
-7 -4 -4 -10z"/>
<path d="M710 2375 c0 -4 10 -16 22 -26 l21 -19 -23 -20 c-13 -11 -21 -22 -19
-25 6 -5 99 80 99 91 0 4 -11 -3 -25 -16 l-25 -23 -25 23 c-14 13 -25 20 -25
15z"/>
<path d="M1833 2366 c-3 -5 -1 -6 5 -2 7 4 12 2 12 -3 0 -6 5 -11 11 -11 5 0
8 4 5 9 -4 5 0 11 6 14 7 3 3 4 -10 4 -13 -1 -26 -6 -29 -11z"/>
<path d="M1960 2364 c0 -8 -4 -12 -10 -9 -25 15 -7 -12 20 -30 27 -18 45 -45
20 -30 -5 3 -10 1 -10 -5 0 -7 6 -10 13 -7 16 5 16 89 -1 93 -7 1 -8 0 -2 -3
5 -2 10 -9 10 -14 0 -6 -4 -7 -10 -4 -5 3 -10 2 -10 -4 0 -5 6 -11 13 -14 6
-2 9 -8 5 -12 -12 -13 -36 14 -31 35 3 11 3 20 -1 20 -3 0 -6 -7 -6 -16z"/>
<path d="M1070 2362 c0 -6 11 -17 25 -26 14 -9 23 -22 19 -28 -4 -6 7 -3 24 7
l31 19 -21 18 c-24 20 -38 23 -38 7 0 -5 4 -8 9 -5 11 7 33 -18 24 -27 -11
-12 -25 -8 -17 5 4 6 3 8 -3 5 -5 -4 -20 3 -31 14 -12 11 -22 16 -22 11z"/>
<path d="M1272 2356 c2 -8 -13 -27 -32 -42 -39 -29 -32 -29 17 1 28 17 42 55
20 55 -4 0 -7 -7 -5 -14z"/>
<path d="M1916 2353 c-4 -10 -1 -20 8 -25 8 -5 22 -15 31 -24 8 -8 15 -11 15
-6 0 5 -11 17 -25 26 -15 10 -22 22 -19 31 4 8 4 15 1 15 -3 0 -8 -8 -11 -17z"/>
<path d="M2020 2353 c0 -5 5 -14 12 -21 9 -9 9 -12 0 -12 -7 0 -12 -5 -12 -11
0 -5 4 -8 9 -4 5 3 12 -3 14 -12 3 -10 4 -4 4 12 -1 26 -27 72 -27 48z"/>
<path d="M595 2315 c-16 -18 -33 -31 -37 -29 -5 3 -8 0 -8 -5 0 -6 4 -11 10
-11 12 0 70 59 70 71 0 12 -1 11 -35 -26z"/>
<path d="M1302 2330 c-11 -18 -9 -22 15 -19 4 0 11 -8 15 -18 7 -16 8 -16 5 2
-2 11 -9 19 -15 18 -15 -4 -15 10 0 25 7 7 8 12 2 12 -5 0 -15 -9 -22 -20z"/>
<path d="M1823 2343 c4 -3 5 -8 2 -13 -3 -5 6 -7 20 -5 30 3 46 14 19 13 -11
0 -26 1 -34 4 -8 3 -12 3 -7 1z"/>
<path d="M564 2319 c-19 -22 -19 -22 4 -8 12 8 22 17 22 21 0 12 -6 9 -26 -13z"/>
<path d="M1794 2333 c3 -6 0 -15 -7 -20 -20 -12 -49 -60 -40 -66 16 -9 56 -2
59 11 1 7 0 8 -3 2 -2 -5 -9 -10 -14 -10 -6 0 -7 5 -4 10 3 6 1 10 -4 10 -6 0
-11 -4 -11 -10 0 -5 -5 -10 -10 -10 -7 0 -7 6 0 20 6 10 16 17 23 14 7 -2 27
2 43 11 18 9 23 15 12 15 -9 0 -20 -4 -23 -10 -3 -5 -14 -10 -23 -10 -15 1
-15 2 2 15 17 13 18 17 6 28 -9 8 -11 8 -6 0z"/>
<path d="M1890 2327 c0 -9 -5 -16 -12 -14 -6 1 -13 -6 -14 -16 -1 -12 0 -13 3
-2 2 8 9 13 14 9 11 -6 25 24 15 33 -3 4 -6 -1 -6 -10z"/>
<path d="M1075 2309 c-4 -6 -4 -13 -1 -16 3 -4 6 -1 6 6 0 7 5 9 10 6 6 -3 10
-1 10 4 0 14 -17 14 -25 0z"/>
<path d="M1156 2312 c-3 -5 1 -9 9 -9 8 0 15 4 15 9 0 4 -4 8 -9 8 -6 0 -12
-4 -15 -8z"/>
<path d="M1370 2309 c0 -5 -4 -8 -8 -5 -4 2 -9 -4 -9 -15 -2 -23 7 -24 33 -4
16 13 16 14 1 9 -13 -5 -16 -2 -11 10 3 9 3 16 0 16 -3 0 -6 -5 -6 -11z"/>
<path d="M1914 2313 c3 -6 0 -13 -6 -16 -7 -2 -11 -7 -8 -10 3 -3 12 -2 20 3
13 8 13 11 1 22 -8 8 -11 8 -7 1z"/>
<path d="M531 2294 c0 -11 3 -14 6 -6 3 7 2 16 -1 19 -3 4 -6 -2 -5 -13z"/>
<path d="M933 2293 c-26 -23 -47 -63 -33 -63 5 0 10 6 10 14 0 8 8 21 18 28
18 13 37 38 29 38 -2 0 -13 -8 -24 -17z"/>
<path d="M1259 2298 c-11 -8 -11 -9 2 -5 9 3 22 0 28 -6 8 -8 11 -8 11 0 0 16
-25 23 -41 11z"/>
<path d="M1943 2285 c2 -11 9 -19 15 -17 7 1 12 -2 12 -6 0 -5 7 -17 16 -28
15 -18 15 -18 5 2 -6 12 -7 24 -4 28 6 5 -3 7 -24 5 -4 0 -11 8 -15 18 -7 16
-8 16 -5 -2z"/>
<path d="M510 2280 c0 -6 7 -13 16 -17 14 -5 7 -15 -32 -50 -26 -24 -40 -41
-31 -37 10 3 33 22 53 42 l35 35 -21 19 c-11 10 -20 14 -20 8z"/>
<path d="M966 2275 c4 -8 11 -15 16 -15 6 0 5 6 -2 15 -7 8 -14 15 -16 15 -2
0 -1 -7 2 -15z"/>
<path d="M1395 2270 c-16 -17 -16 -20 -3 -15 9 4 19 13 22 21 7 19 2 18 -19
-6z"/>
<path d="M1830 2280 c-8 -5 -12 -11 -9 -14 2 -3 11 -1 19 4 8 5 12 11 9 14 -2
3 -11 1 -19 -4z"/>
<path d="M1880 2283 c0 -5 -11 -15 -24 -23 -23 -12 -33 -50 -13 -50 5 0 7 7 4
15 -4 8 5 22 21 34 15 11 24 23 19 27 -4 4 -7 3 -7 -3z"/>
<path d="M2015 2280 c-3 -5 -1 -10 4 -10 6 0 11 5 11 10 0 6 -2 10 -4 10 -3 0
-8 -4 -11 -10z"/>
<path d="M2095 2280 c-3 -5 -1 -10 4 -10 6 0 11 5 11 10 0 6 -2 10 -4 10 -3 0
-8 -4 -11 -10z"/>
<path d="M1893 2258 c-18 -13 -33 -27 -33 -31 0 -5 4 -6 9 -2 5 3 11 0 14 -7
2 -7 3 -5 2 4 -4 26 21 44 40 28 10 -9 15 -9 15 -1 0 6 -5 11 -11 11 -5 0 -7
5 -4 10 9 15 3 12 -32 -12z"/>
<path d="M475 2261 c-4 -7 1 -8 12 -4 16 6 16 5 4 -10 -12 -15 -12 -17 3 -11
9 4 15 11 13 17 -5 15 -24 20 -32 8z"/>
<path d="M936 2254 c-23 -23 -20 -30 4 -9 11 10 20 20 20 22 0 7 -9 2 -24 -13z"/>
<path d="M2050 2259 c0 -5 5 -7 10 -4 6 3 10 8 10 11 0 2 -4 4 -10 4 -5 0 -10
-5 -10 -11z"/>
<path d="M2000 2252 c0 -4 9 -8 20 -9 11 -1 20 2 20 5 0 4 -9 8 -20 9 -11 1
-20 -2 -20 -5z"/>
<path d="M2079 2258 c-1 -2 -3 -13 -4 -26 -2 -21 -1 -22 18 -9 12 8 23 20 26
28 3 9 -2 7 -14 -4 -9 -10 -20 -15 -23 -12 -4 3 0 10 8 15 10 7 11 10 3 10 -7
0 -14 -1 -14 -2z"/>
<path d="M438 2230 c-10 -9 -18 -21 -18 -26 0 -5 4 -4 8 2 4 6 15 15 26 21 10
6 15 13 10 15 -5 3 -17 -2 -26 -12z"/>
<path d="M1720 2248 c0 -17 39 -44 65 -45 17 0 22 1 12 4 -9 2 -15 9 -12 14 4
5 1 9 -4 9 -6 0 -11 -5 -11 -12 0 -6 -11 -1 -25 12 -14 13 -25 21 -25 18z"/>
<path d="M1950 2240 c0 -5 5 -10 11 -10 5 0 7 5 4 10 -3 6 -8 10 -11 10 -2 0
-4 -4 -4 -10z"/>
<path d="M1700 2230 c0 -6 21 -30 47 -55 46 -43 47 -45 30 -62 -17 -17 -19
-17 -45 12 -33 36 -83 78 -64 53 11 -14 8 -22 -19 -52 -17 -20 -28 -36 -24
-36 4 0 1 -8 -6 -17 -13 -16 -12 -17 4 -4 16 13 22 10 58 -25 22 -21 35 -40
29 -42 -5 -2 -10 -8 -10 -13 0 -6 4 -8 9 -4 5 3 12 -3 14 -12 3 -10 4 -4 4 12
-1 21 -14 41 -41 68 -22 20 -43 37 -48 37 -4 0 2 11 14 25 25 29 35 26 18 -5
-8 -15 -8 -20 -1 -16 6 4 11 3 11 -3 0 -6 18 -27 40 -47 28 -27 37 -40 28 -45
-7 -4 -10 -10 -8 -12 3 -2 37 29 76 70 84 85 84 98 1 18 l-58 -56 -39 40 c-22
22 -40 46 -40 52 0 7 17 -4 37 -24 20 -20 39 -37 43 -37 11 0 120 110 120 121
0 6 -8 1 -18 -11 -21 -26 -38 -21 -52 14 -7 16 -9 17 -9 4 -1 -9 6 -24 15 -33
9 -9 13 -19 10 -22 -4 -4 -17 5 -31 19 -17 19 -21 28 -12 37 8 8 8 11 -1 11
-7 0 -12 -6 -12 -12 0 -7 -16 4 -35 24 -19 21 -35 33 -35 28z m60 -140 c5 0
16 7 25 16 9 9 19 13 22 10 4 -4 -5 -18 -21 -32 l-27 -26 -40 41 c-21 23 -39
47 -39 54 0 7 16 -5 36 -25 19 -21 39 -38 44 -38z"/>
<path d="M1805 2230 c-3 -5 -1 -10 4 -10 6 0 11 5 11 10 0 6 -2 10 -4 10 -3 0
-8 -4 -11 -10z"/>
<path d="M1900 2230 c0 -5 3 -9 8 -9 19 3 32 -2 30 -13 -2 -6 6 -13 17 -15
l20 -3 -20 9 c-11 5 -15 10 -10 11 11 1 -24 30 -37 30 -4 0 -8 -4 -8 -10z"/>
<path d="M2045 2230 c-3 -5 -1 -10 4 -10 6 0 11 5 11 10 0 6 -2 10 -4 10 -3 0
-8 -4 -11 -10z"/>
<path d="M850 2219 c0 -5 5 -7 10 -4 6 3 10 8 10 11 0 2 -4 4 -10 4 -5 0 -10
-5 -10 -11z"/>
<path d="M2007 2217 c-3 -8 4 -13 22 -14 14 0 18 1 8 4 -9 2 -15 9 -12 14 4 5
2 9 -3 9 -6 0 -12 -6 -15 -13z"/>
<path d="M460 2209 c0 -5 5 -7 10 -4 6 3 10 8 10 11 0 2 -4 4 -10 4 -5 0 -10
-5 -10 -11z"/>
<path d="M879 2218 c-3 -6 -8 -60 -6 -57 2 2 9 13 17 23 10 13 10 17 3 12 -7
-4 -13 -3 -13 3 0 5 6 12 13 14 10 4 10 6 0 6 -7 1 -14 0 -14 -1z"/>
<path d="M1676 2213 c-2 -3 16 -24 41 -49 26 -24 48 -42 50 -40 3 2 -16 24
-41 49 -25 24 -48 42 -50 40z"/>
<path d="M1977 2200 c10 -11 19 -20 21 -20 1 0 -2 9 -8 20 -6 11 -15 20 -20
20 -6 0 -2 -9 7 -20z"/>
<path d="M395 2200 c-3 -5 -1 -10 4 -10 6 0 11 5 11 10 0 6 -2 10 -4 10 -3 0
-8 -4 -11 -10z"/>
<path d="M425 2188 l-20 -21 23 12 c12 6 22 16 22 21 0 13 -2 12 -25 -12z"/>
<path d="M1855 2200 c-3 -5 -1 -10 4 -10 6 0 11 5 11 10 0 6 -2 10 -4 10 -3 0
-8 -4 -11 -10z"/>
<path d="M845 2186 c-14 -15 -16 -57 -4 -73 6 -6 8 -17 4 -23 -3 -5 -1 -10 4
-10 14 0 14 27 1 35 -18 11 -11 35 8 29 16 -5 16 -5 0 9 -13 10 -14 17 -6 25
6 6 10 14 7 16 -2 2 -9 -1 -14 -8z"/>
<path d="M1820 2189 c0 -5 5 -7 10 -4 6 3 10 8 10 11 0 2 -4 4 -10 4 -5 0 -10
-5 -10 -11z"/>
<path d="M380 2176 c8 -10 15 -26 15 -34 0 -8 6 -16 13 -18 7 -1 8 0 2 3 -5 2
-10 9 -10 14 0 6 5 7 10 4 23 -14 7 12 -18 30 -24 17 -26 17 -12 1z"/>
<path d="M1890 2179 c0 -5 5 -7 10 -4 6 3 10 8 10 11 0 2 -4 4 -10 4 -5 0 -10
-5 -10 -11z"/>
<path d="M1916 2174 c-8 -20 -8 -24 2 -24 4 0 8 9 9 20 2 24 -3 26 -11 4z"/>
<path d="M2010 2175 c0 -8 4 -15 8 -15 5 0 9 7 9 15 0 8 -4 15 -9 15 -4 0 -8
-7 -8 -15z"/>
<path d="M2041 2174 c0 -11 3 -14 6 -6 3 7 2 16 -1 19 -3 4 -6 -2 -5 -13z"/>
<path d="M1835 2170 c-3 -5 -2 -10 4 -10 5 0 13 5 16 10 3 6 2 10 -4 10 -5 0
-13 -4 -16 -10z"/>
<path d="M1943 2167 c1 -10 6 -17 12 -17 5 1 13 -7 17 -17 7 -17 8 -17 5 0 -1
10 -6 17 -12 17 -5 -1 -13 7 -17 17 -7 17 -8 17 -5 0z"/>
<path d="M1970 2170 c8 -5 20 -10 25 -10 6 0 3 5 -5 10 -8 5 -19 10 -25 10 -5
0 -3 -5 5 -10z"/>
<path d="M362 2156 c7 -8 15 -12 17 -11 5 6 -10 25 -20 25 -5 0 -4 -6 3 -14z"/>
<path d="M433 2141 c0 -14 1 -18 4 -8 2 9 9 15 14 12 5 -4 9 -2 9 3 0 6 -6 12
-13 15 -8 3 -13 -4 -14 -22z"/>
<path d="M617 2140 c-9 -11 -13 -20 -7 -20 5 0 14 9 20 20 6 11 9 20 8 20 -2
0 -11 -9 -21 -20z"/>
<path d="M700 2150 c0 -5 5 -10 11 -10 5 0 7 5 4 10 -3 6 -8 10 -11 10 -2 0
-4 -4 -4 -10z"/>
<path d="M805 2150 c3 -5 8 -10 11 -10 2 0 4 5 4 10 0 6 -5 10 -11 10 -5 0 -7
-4 -4 -10z"/>
<path d="M1885 2150 c-3 -5 -1 -10 4 -10 6 0 11 5 11 10 0 6 -2 10 -4 10 -3 0
-8 -4 -11 -10z"/>
<path d="M336 2142 c-2 -4 5 -19 15 -32 17 -20 18 -21 10 -4 -6 12 -8 24 -5
27 3 3 1 8 -5 11 -5 4 -12 3 -15 -2z"/>
<path d="M470 2143 c0 -5 5 -15 10 -23 7 -12 9 -10 7 8 -1 19 -17 33 -17 15z"/>
<path d="M579 2143 c-1 -5 -1 -11 0 -15 0 -5 -3 -8 -7 -8 -5 0 -17 -7 -28 -15
-16 -14 -15 -14 14 0 18 9 30 20 27 25 -3 5 3 11 12 13 17 4 17 5 1 6 -10 0
-19 -2 -19 -6z"/>
<path d="M735 2140 c3 -5 8 -10 11 -10 2 0 4 5 4 10 0 6 -5 10 -11 10 -5 0 -7
-4 -4 -10z"/>
<path d="M1990 2146 c0 -2 9 -6 20 -9 11 -3 18 -1 14 4 -5 9 -34 13 -34 5z"/>
<path d="M540 2129 c0 -5 5 -7 10 -4 6 3 10 8 10 11 0 2 -4 4 -10 4 -5 0 -10
-5 -10 -11z"/>
<path d="M647 2123 c3 -7 9 -13 15 -13 5 0 7 4 3 9 -3 5 3 12 12 14 10 3 6 4
-8 4 -18 -1 -25 -6 -22 -14z"/>
<path d="M760 2136 c0 -4 9 -19 19 -33 11 -13 17 -31 14 -39 -3 -8 -1 -14 4
-14 18 0 11 38 -13 65 -13 15 -24 25 -24 21z"/>
<path d="M1828 2049 c-47 -49 -83 -89 -79 -89 5 0 46 37 91 83 46 45 87 81 92
80 4 -2 8 2 8 7 0 24 -31 2 -112 -81z"/>
<path d="M310 2122 c0 -6 18 -27 40 -48 22 -21 42 -46 45 -55 6 -18 45 -23 45
-6 0 5 -6 7 -14 4 -8 -3 -21 4 -29 16 -25 36 -87 100 -87 89z"/>
<path d="M370 2120 c0 -5 5 -10 11 -10 5 0 7 5 4 10 -3 6 -8 10 -11 10 -2 0
-4 -4 -4 -10z"/>
<path d="M450 2120 c0 -5 5 -10 11 -10 5 0 7 5 4 10 -3 6 -8 10 -11 10 -2 0
-4 -4 -4 -10z"/>
<path d="M505 2108 l-20 -21 23 12 c12 6 22 16 22 21 0 13 -2 12 -25 -12z"/>
<path d="M735 2106 c13 -13 22 -32 21 -42 -2 -11 -1 -13 1 -6 3 7 9 10 14 7 5
-4 9 -1 9 4 0 6 -5 11 -12 11 -6 0 -8 3 -5 6 4 4 -3 15 -15 25 -31 27 -41 23
-13 -5z"/>
<path d="M1950 2121 c0 -5 16 -19 35 -31 19 -12 39 -29 45 -38 5 -9 10 -12 10
-5 0 13 -27 43 -39 43 -4 0 -17 9 -29 20 -12 12 -22 16 -22 11z"/>
<path d="M1990 2119 c0 -5 5 -7 10 -4 6 3 10 1 10 -4 0 -6 5 -11 11 -11 8 0 8
5 -1 15 -14 17 -30 20 -30 4z"/>
<path d="M624 2105 c-4 -8 -10 -15 -16 -15 -5 0 -6 5 -3 10 3 6 1 10 -4 10 -6
0 -11 -4 -11 -10 0 -5 -3 -9 -7 -9 -21 3 -29 -3 -30 -23 l-2 -23 12 21 c8 14
20 20 34 18 15 -3 26 3 33 16 6 11 8 20 5 20 -3 0 -8 -7 -11 -15z"/>
<path d="M685 2110 c3 -5 8 -10 11 -10 2 0 4 5 4 10 0 6 -5 10 -11 10 -5 0 -7
-4 -4 -10z"/>
<path d="M293 2104 c7 -12 -16 -38 -24 -29 -3 2 -6 -7 -7 -21 -1 -14 4 -27 13
-30 8 -4 12 -10 9 -15 -3 -5 0 -9 5 -9 13 0 13 3 5 24 -3 9 -10 13 -15 10 -15
-9 -10 23 6 36 13 11 21 7 49 -21 26 -25 32 -37 24 -46 -7 -9 -7 -13 0 -13 28
0 17 33 -26 77 -25 26 -43 43 -39 37z"/>
<path d="M413 2090 c-1 -11 2 -20 5 -20 4 0 8 9 9 20 1 11 -2 20 -5 20 -4 0
-8 -9 -9 -20z"/>
<path d="M710 2100 c0 -5 5 -10 11 -10 5 0 7 5 4 10 -3 6 -8 10 -11 10 -2 0
-4 -4 -4 -10z"/>
<path d="M815 2100 c3 -5 8 -10 11 -10 2 0 4 5 4 10 0 6 -5 10 -11 10 -5 0 -7
-4 -4 -10z"/>
<path d="M1937 2095 c12 -8 20 -23 19 -32 -2 -10 -1 -12 1 -5 3 7 9 10 14 7 5
-4 9 -3 9 0 0 9 -43 44 -55 45 -5 0 0 -7 12 -15z"/>
<path d="M380 2094 c0 -12 35 -64 43 -64 4 0 6 4 2 9 -3 5 0 11 7 14 7 2 5 3
-5 1 -18 -2 -41 28 -30 40 3 3 1 6 -5 6 -7 0 -12 -3 -12 -6z"/>
<path d="M441 2084 c0 -11 3 -14 6 -6 3 7 2 16 -1 19 -3 4 -6 -2 -5 -13z"/>
<path d="M647 2084 c3 -8 9 -14 15 -14 5 0 6 5 3 10 -3 6 -2 10 4 10 5 0 12
-5 14 -10 3 -6 4 -5 3 2 -1 7 -12 13 -23 14 -14 1 -20 -3 -16 -12z"/>
<path d="M513 2061 c0 -14 1 -18 4 -8 2 9 9 15 14 12 5 -4 9 -2 9 3 0 6 -6 12
-13 15 -8 3 -13 -4 -14 -22z"/>
<path d="M1830 2008 c-44 -44 -80 -84 -80 -89 0 -4 37 30 83 76 64 64 86 82
95 73 8 -8 12 -9 12 -1 0 6 -7 13 -15 16 -9 4 -44 -24 -95 -75z"/>
<path d="M460 2068 c0 -3 9 -6 20 -5 11 1 20 5 20 9 0 3 -9 6 -20 5 -11 -1
-20 -5 -20 -9z"/>
<path d="M617 2060 c-9 -11 -13 -20 -7 -20 5 0 14 9 20 20 6 11 9 20 8 20 -2
0 -11 -9 -21 -20z"/>
<path d="M700 2068 c0 -3 9 -6 20 -5 11 1 20 5 20 9 0 3 -9 6 -20 5 -11 -1
-20 -5 -20 -9z"/>
<path d="M820 2070 c0 -6 7 -10 15 -10 8 0 15 2 15 4 0 2 -7 6 -15 10 -8 3
-15 1 -15 -4z"/>
<path d="M857 2060 c-9 -11 -13 -20 -7 -20 5 0 14 9 20 20 6 11 9 20 8 20 -2
0 -11 -9 -21 -20z"/>
<path d="M2570 2060 c-6 -11 -15 -18 -19 -16 -21 13 -1 -53 23 -77 16 -16 25
-31 22 -34 -3 -4 -24 12 -47 35 -48 49 -66 57 -23 10 44 -49 57 -57 81 -53 12
2 24 -1 27 -6 2 -5 4 -5 3 2 -2 6 -5 9 -8 7 -3 -2 -19 13 -35 32 -16 19 -32
37 -36 38 -5 2 -8 8 -8 13 0 6 4 8 8 5 4 -2 14 0 22 6 12 8 11 9 -3 4 -12 -4
-17 -2 -14 6 2 7 13 12 25 10 23 -3 38 13 21 24 -8 4 -9 3 -5 -4 4 -7 1 -12
-8 -12 -10 0 -13 6 -10 15 9 22 -4 18 -16 -5z"/>
<path d="M575 2060 c-3 -5 -3 -10 2 -10 4 0 1 -5 -7 -11 -10 -7 -11 -9 -2 -7
8 2 13 8 12 13 -1 5 7 12 17 16 16 7 16 8 1 8 -9 1 -20 -3 -23 -9z"/>
<path d="M1990 2060 c0 -5 5 -10 11 -10 5 0 7 5 4 10 -3 6 -8 10 -11 10 -2 0
-4 -4 -4 -10z"/>
<path d="M302 2040 c7 -11 16 -20 20 -20 5 0 8 -7 8 -16 0 -8 -4 -13 -8 -10
-5 3 -16 -4 -25 -15 -9 -10 -12 -19 -7 -19 6 0 13 7 16 15 4 8 10 13 14 10 5
-3 13 2 18 11 7 12 2 23 -15 40 -29 29 -37 31 -21 4z"/>
<path d="M647 2043 c3 -7 9 -13 15 -13 5 0 7 4 3 9 -3 5 3 12 12 14 10 3 6 4
-8 4 -18 -1 -25 -6 -22 -14z"/>
<path d="M1655 2030 c16 -16 23 -30 17 -30 -7 0 -12 -5 -12 -11 0 -5 5 -7 10
-4 6 3 10 2 10 -4 0 -5 -5 -12 -10 -14 -6 -3 -5 -4 2 -3 22 4 17 48 -8 73 -34
34 -43 28 -9 -7z"/>
<path d="M478 2043 c7 -3 16 -2 19 1 4 3 -2 6 -13 5 -11 0 -14 -3 -6 -6z"/>
<path d="M527 2036 c-4 -10 -1 -13 8 -9 8 3 12 9 9 14 -7 12 -11 11 -17 -5z"/>
<path d="M718 2043 c7 -3 16 -2 19 1 4 3 -2 6 -13 5 -11 0 -14 -3 -6 -6z"/>
<path d="M767 2036 c-4 -10 -1 -13 8 -9 8 3 12 9 9 14 -7 12 -11 11 -17 -5z"/>
<path d="M810 2040 c-9 -6 -10 -10 -3 -10 6 0 15 5 18 10 8 12 4 12 -15 0z"/>
<path d="M1833 1971 c-45 -44 -78 -82 -75 -85 3 -3 0 -6 -6 -6 -7 0 -12 -5
-12 -11 0 -5 5 -7 10 -4 6 3 10 -1 10 -10 0 -9 -20 -37 -45 -63 -25 -25 -45
-50 -45 -54 0 -5 20 12 45 39 25 26 45 41 45 34 0 -7 -15 -28 -34 -47 -18 -18
-31 -36 -28 -39 3 -3 -3 -5 -14 -6 -12 0 -14 -3 -5 -6 7 -3 28 11 47 33 38 45
47 31 9 -14 -14 -17 -25 -34 -25 -38 0 -5 11 5 25 21 13 17 24 26 25 20 0 -16
-37 -67 -46 -63 -5 2 -10 -6 -11 -17 l-3 -20 9 20 c5 11 10 16 11 10 0 -5 10
1 21 15 14 16 19 19 15 8 -3 -10 -1 -18 5 -18 7 0 9 10 4 27 -5 23 -4 25 9 14
9 -7 14 -16 12 -20 -3 -4 4 -7 14 -8 15 -1 13 4 -11 28 -16 16 -29 35 -29 42
0 7 16 -5 36 -25 19 -21 38 -38 41 -38 6 0 -16 27 -54 68 -13 12 -23 28 -23
35 0 7 19 -7 41 -30 22 -24 44 -43 49 -43 5 0 -14 22 -41 50 -27 27 -49 55
-49 62 0 7 16 -4 36 -24 19 -21 39 -38 44 -38 5 0 -8 17 -28 38 -62 61 -62 64
25 151 43 43 85 81 93 84 13 5 13 6 -1 6 -9 1 -52 -35 -96 -78z"/>
<path d="M1970 2040 c0 -5 5 -10 11 -10 5 0 7 5 4 10 -3 6 -8 10 -11 10 -2 0
-4 -4 -4 -10z"/>
<path d="M228 2033 c7 -3 16 -2 19 1 4 3 -2 6 -13 5 -11 0 -14 -3 -6 -6z"/>
<path d="M445 2030 c3 -5 8 -10 11 -10 2 0 4 5 4 10 0 6 -5 10 -11 10 -5 0 -7
-4 -4 -10z"/>
<path d="M625 2029 c-4 -6 -5 -12 -2 -15 2 -3 7 2 10 11 7 17 1 20 -8 4z"/>
<path d="M685 2030 c3 -5 8 -10 11 -10 2 0 4 5 4 10 0 6 -5 10 -11 10 -5 0 -7
-4 -4 -10z"/>
<path d="M863 2025 c-8 -22 5 -31 20 -15 9 10 9 11 0 6 -7 -4 -13 -3 -13 3 0
5 6 12 13 14 9 4 9 6 -1 6 -7 1 -15 -6 -19 -14z"/>
<path d="M1625 2020 c17 -19 10 -28 -11 -12 -5 4 -2 0 7 -8 9 -9 19 -22 22
-30 3 -8 5 -1 4 15 -1 29 -17 55 -33 55 -4 0 1 -9 11 -20z"/>
<path d="M2005 2030 c3 -5 8 -10 11 -10 2 0 4 5 4 10 0 6 -5 10 -11 10 -5 0
-7 -4 -4 -10z"/>
<path d="M2611 2026 c-10 -12 -8 -17 11 -26 21 -10 21 -10 5 3 -13 11 -15 16
-5 20 7 2 10 7 7 11 -3 4 -12 0 -18 -8z"/>
<path d="M470 2025 c0 -5 5 -17 10 -25 5 -8 10 -10 10 -5 0 6 -5 17 -10 25 -5
8 -10 11 -10 5z"/>
<path d="M495 2020 c3 -5 8 -10 11 -10 2 0 4 5 4 10 0 6 -5 10 -11 10 -5 0 -7
-4 -4 -10z"/>
<path d="M590 2022 c0 -4 18 -27 41 -50 22 -24 38 -47 34 -50 -3 -3 -26 15
-50 40 -24 25 -41 49 -38 51 2 3 -7 4 -21 3 -15 -2 -30 -7 -34 -11 -4 -5 1 -5
11 -2 13 5 32 -7 70 -43 28 -27 48 -53 44 -56 -4 -4 -25 11 -46 34 -21 22 -42
38 -45 35 -3 -4 -6 -1 -6 5 0 7 -5 12 -11 12 -5 0 -8 -4 -4 -9 3 -5 0 -11 -7
-14 -7 -2 -5 -3 6 -1 10 1 28 -7 41 -19 62 -62 61 -61 89 -40 l25 20 -42 44
c-23 24 -41 47 -39 52 1 4 -2 7 -8 7 -5 0 -10 -3 -10 -8z"/>
<path d="M710 2015 c0 -8 4 -15 10 -15 5 0 7 7 4 15 -4 8 -8 15 -10 15 -2 0
-4 -7 -4 -15z"/>
<path d="M739 2016 c9 -10 8 -16 -4 -26 -13 -11 -19 -9 -38 9 -36 33 -40 25
-6 -10 l30 -31 19 22 c19 21 17 50 -2 50 -7 0 -6 -5 1 -14z"/>
<path d="M830 2019 c0 -16 -156 -169 -171 -169 -7 0 22 34 64 76 75 74 89 94
65 94 -6 0 -9 -3 -5 -6 3 -4 -10 -23 -29 -43 l-35 -36 -39 43 c-22 24 -40 40
-40 35 0 -5 16 -26 36 -47 l36 -38 -36 -34 -37 -35 -39 40 c-22 22 -40 37 -40
32 0 -12 76 -85 92 -89 7 -2 30 -21 52 -43 21 -21 43 -39 48 -39 5 0 -12 20
-39 45 -26 25 -41 45 -34 45 7 0 28 -15 47 -34 18 -18 36 -31 39 -28 3 3 5 -3
6 -14 0 -12 3 -14 6 -5 3 7 -11 28 -33 47 -22 18 -33 34 -26 34 6 0 21 -9 32
-20 11 -11 20 -16 20 -12 0 4 -5 13 -12 20 -9 9 -9 12 -1 12 7 0 15 -4 18 -10
3 -5 14 -10 23 -9 12 0 10 3 -7 10 -19 8 -21 12 -11 24 7 8 15 13 19 11 4 -3
7 4 8 14 1 15 -4 13 -28 -11 -16 -16 -35 -29 -42 -29 -7 0 5 16 26 36 20 19
37 38 37 41 0 6 -27 -16 -68 -54 -12 -13 -28 -23 -35 -23 -7 0 24 35 68 79 78
76 96 101 75 101 -5 0 -10 -5 -10 -11z"/>
<path d="M1936 2019 c4 -7 2 -10 -6 -7 -12 4 -90 -68 -90 -83 0 -5 17 9 38 29
51 52 66 56 102 26 16 -14 30 -23 30 -19 0 11 -48 54 -54 48 -3 -4 -6 -1 -6 5
0 7 -5 12 -11 12 -5 0 -7 -5 -3 -11z"/>
<path d="M2030 2021 c0 -6 4 -13 10 -16 6 -3 7 1 4 9 -7 18 -14 21 -14 7z"/>
<path d="M210 2005 c0 -8 -5 -14 -12 -12 -6 1 -13 -6 -14 -16 -1 -12 0 -13 3
-2 2 8 8 13 13 10 5 -3 14 4 20 15 7 13 7 20 0 20 -5 0 -10 -7 -10 -15z"/>
<path d="M236 2005 c-3 -8 -1 -15 4 -15 6 0 10 5 10 11 0 5 5 7 12 3 7 -4 8
-3 4 4 -10 16 -23 15 -30 -3z"/>
<path d="M2007 1996 c26 -23 27 -26 11 -42 -15 -16 -18 -15 -43 10 -14 14 -30
26 -36 26 -5 0 6 -14 25 -30 32 -28 66 -33 66 -8 0 5 5 6 11 2 12 -7 -39 -61
-53 -56 -5 1 -8 -3 -8 -9 0 -6 7 -9 15 -6 8 4 17 2 20 -3 4 -6 12 -10 18 -10
7 0 4 5 -6 11 -18 10 -17 13 8 39 18 19 23 30 15 35 -6 4 -9 14 -5 23 3 9 3
13 -1 10 -3 -4 -15 2 -27 13 -11 10 -25 19 -29 19 -5 0 4 -11 19 -24z"/>
<path d="M450 2000 c0 -5 5 -10 11 -10 5 0 7 5 4 10 -3 6 -8 10 -11 10 -2 0
-4 -4 -4 -10z"/>
<path d="M2580 2007 c0 -12 50 -60 56 -54 4 4 2 7 -5 7 -7 0 -10 3 -8 8 3 4
-6 15 -19 25 -13 10 -24 16 -24 14z"/>
<path d="M380 1990 c0 -5 5 -10 11 -10 5 0 7 5 4 10 -3 6 -8 10 -11 10 -2 0
-4 -4 -4 -10z"/>
<path d="M500 1990 c0 -5 5 -10 11 -10 5 0 7 5 4 10 -3 6 -8 10 -11 10 -2 0
-4 -4 -4 -10z"/>
<path d="M885 1990 c-3 -5 -1 -10 4 -10 6 0 11 5 11 10 0 6 -2 10 -4 10 -3 0
-8 -4 -11 -10z"/>
<path d="M259 1983 c-1 -5 -1 -11 0 -15 0 -5 -3 -8 -7 -8 -5 0 -17 -7 -28 -15
-16 -14 -15 -14 14 0 18 9 30 20 27 25 -3 5 3 11 12 13 17 4 17 5 1 6 -10 0
-19 -2 -19 -6z"/>
<path d="M415 1980 c3 -5 8 -10 11 -10 2 0 4 5 4 10 0 6 -5 10 -11 10 -5 0 -7
-4 -4 -10z"/>
<path d="M850 1979 c0 -5 5 -7 10 -4 6 3 10 8 10 11 0 2 -4 4 -10 4 -5 0 -10
-5 -10 -11z"/>
<path d="M2480 1987 c0 -7 80 -85 80 -79 0 4 5 -1 11 -10 5 -10 15 -18 20 -18
6 0 -15 25 -46 55 -53 51 -65 61 -65 52z"/>
<path d="M220 1969 c0 -5 5 -7 10 -4 6 3 10 8 10 11 0 2 -4 4 -10 4 -5 0 -10
-5 -10 -11z"/>
<path d="M334 1965 c-4 -8 -10 -12 -15 -9 -5 3 -12 -2 -15 -10 -3 -9 -10 -16
-16 -16 -5 0 -6 5 -3 10 3 6 1 10 -4 10 -6 0 -11 -4 -11 -10 0 -5 -3 -9 -7 -9
-21 3 -29 -3 -30 -23 l-2 -23 12 21 c8 14 20 20 35 18 13 -3 25 2 28 11 4 8
10 13 14 10 5 -3 12 1 17 8 4 8 15 17 23 20 12 4 11 6 -3 6 -10 1 -20 -6 -23
-14z"/>
<path d="M440 1964 c0 -8 -4 -12 -10 -9 -5 3 -10 2 -10 -3 0 -23 26 -18 28 4
1 13 0 24 -3 24 -3 0 -5 -7 -5 -16z"/>
<path d="M468 1973 c7 -3 16 -2 19 1 4 3 -2 6 -13 5 -11 0 -14 -3 -6 -6z"/>
<path d="M833 1959 c1 -18 6 -25 14 -22 7 3 13 9 13 15 0 5 -4 7 -9 3 -5 -3
-12 3 -14 12 -3 10 -4 6 -4 -8z"/>
<path d="M1620 1966 c0 -8 4 -17 9 -20 5 -4 7 3 4 14 -6 23 -13 26 -13 6z"/>
<path d="M144 1955 c-10 -8 -14 -14 -9 -15 15 0 40 18 34 24 -3 3 -14 -1 -25
-9z"/>
<path d="M185 1948 l-20 -21 23 12 c12 6 22 16 22 21 0 13 -2 12 -25 -12z"/>
<path d="M365 1960 c-16 -7 -17 -9 -3 -9 9 -1 20 4 23 9 7 11 7 11 -20 0z"/>
<path d="M395 1951 c-4 -14 -13 -18 -30 -15 -15 3 -27 -2 -33 -12 -5 -9 -13
-16 -18 -17 -14 -1 -37 -27 -24 -27 6 0 13 7 16 15 4 8 10 12 15 9 5 -3 12 2
15 10 3 9 10 16 16 16 5 0 6 -4 3 -10 -3 -5 -1 -10 4 -10 6 0 11 5 11 10 0 6
3 9 8 9 19 -3 28 3 29 21 2 25 -4 26 -12 1z"/>
<path d="M873 1950 c1 -11 5 -20 9 -20 3 0 6 9 5 20 -1 11 -5 20 -9 20 -3 0
-6 -9 -5 -20z"/>
<path d="M1695 1960 c-3 -5 -1 -10 4 -10 6 0 11 5 11 10 0 6 -2 10 -4 10 -3 0
-8 -4 -11 -10z"/>
<path d="M1873 1931 c-23 -22 -49 -38 -60 -37 -10 2 -12 1 -5 -1 7 -3 10 -9 7
-14 -4 -5 -1 -9 4 -9 6 0 11 5 11 12 0 6 3 9 6 5 3 -3 23 12 44 35 l39 40 36
-27 c19 -15 38 -25 42 -21 3 3 2 6 -3 6 -5 0 -22 11 -38 25 -16 14 -32 25 -35
25 -3 0 -25 -18 -48 -39z"/>
<path d="M460 1948 c0 -3 9 -6 20 -5 11 1 20 5 20 9 0 3 -9 6 -20 5 -11 -1
-20 -5 -20 -9z"/>
<path d="M805 1950 c-3 -5 -1 -10 4 -10 6 0 11 5 11 10 0 6 -2 10 -4 10 -3 0
-8 -4 -11 -10z"/>
<path d="M900 1949 c0 -5 5 -7 10 -4 6 3 10 8 10 11 0 2 -4 4 -10 4 -5 0 -10
-5 -10 -11z"/>
<path d="M1596 1951 c-3 -5 1 -14 9 -21 10 -9 15 -9 15 -1 0 6 -5 11 -11 11
-5 0 -7 5 -4 10 3 6 4 10 1 10 -3 0 -7 -4 -10 -9z"/>
<path d="M510 1936 c0 -8 7 -17 16 -20 23 -9 24 -4 2 17 -14 13 -18 14 -18 3z"/>
<path d="M535 1940 c3 -5 8 -10 11 -10 2 0 4 5 4 10 0 6 -5 10 -11 10 -5 0 -7
-4 -4 -10z"/>
<path d="M1650 1942 c0 -5 7 -17 16 -28 15 -18 15 -18 5 2 -6 12 -7 24 -4 28
3 3 1 6 -5 6 -7 0 -12 -4 -12 -8z"/>
<path d="M1730 1939 c0 -5 5 -7 10 -4 6 3 10 8 10 11 0 2 -4 4 -10 4 -5 0 -10
-5 -10 -11z"/>
<path d="M2446 1938 c8 -13 -16 -39 -29 -31 -5 3 -7 1 -3 -5 3 -5 3 -12 -1
-15 -5 -2 -2 -2 5 -1 7 2 15 -3 18 -11 5 -12 9 -10 24 7 l17 22 23 -22 c13
-12 25 -29 26 -37 1 -8 9 -21 16 -29 13 -12 16 -11 26 5 18 29 15 37 -30 81
-27 26 -53 42 -70 43 -15 1 -25 -2 -22 -7z m75 -37 c21 -21 41 -36 44 -33 3 3
5 -4 5 -16 0 -39 -30 -34 -36 6 -3 14 -42 52 -55 52 -4 0 -14 -7 -22 -15 -8
-8 -18 -11 -21 -8 -6 6 32 51 43 52 2 1 21 -16 42 -38z"/>
<path d="M105 1929 c-4 -6 -4 -13 -1 -16 3 -4 6 -1 6 6 0 7 5 9 12 5 7 -4 8
-3 4 4 -9 15 -13 15 -21 1z"/>
<path d="M914 1929 c-3 -6 -3 -13 0 -16 3 -4 6 -1 6 5 0 7 5 12 11 12 5 0 7
-4 4 -10 -3 -5 -2 -10 3 -10 6 0 12 6 15 13 6 15 -30 21 -39 6z"/>
<path d="M1680 1932 c0 -4 9 -8 20 -9 11 -1 20 2 20 5 0 4 -9 8 -20 9 -11 1
-20 -2 -20 -5z"/>
<path d="M1878 1895 l-45 -44 43 -45 c26 -26 42 -50 38 -59 -3 -8 2 -17 10
-20 9 -4 16 -2 16 3 0 6 -4 10 -9 10 -5 0 -7 12 -5 27 3 15 2 25 -1 21 -4 -3
-22 9 -42 27 l-35 33 39 41 39 41 22 -20 c12 -12 22 -17 22 -12 0 6 -11 17
-24 25 -22 15 -25 14 -68 -28z"/>
<path d="M156 1916 c10 -8 21 -12 24 -10 5 6 -21 24 -34 24 -6 0 -1 -6 10 -14z"/>
<path d="M193 1901 c0 -14 1 -18 4 -8 2 9 9 15 14 12 5 -4 9 -2 9 3 0 6 -6 12
-13 15 -8 3 -13 -4 -14 -22z"/>
<path d="M400 1915 c-14 -7 -24 -17 -22 -21 2 -5 -5 -12 -15 -16 -16 -7 -16
-8 2 -5 11 2 19 9 18 15 -2 7 1 12 5 12 5 0 17 7 28 15 24 18 17 19 -16 0z"/>
<path d="M444 1916 c-10 -8 -17 -16 -14 -19 3 -2 14 4 24 14 23 22 18 25 -10
5z"/>
<path d="M810 1928 c0 -2 9 -11 20 -21 11 -9 20 -13 20 -7 0 5 -9 14 -20 20
-11 6 -20 9 -20 8z"/>
<path d="M864 1916 c24 -19 36 -20 36 -4 0 6 -3 8 -6 5 -4 -3 -16 -2 -28 4
-20 10 -20 10 -2 -5z"/>
<path d="M1630 1920 c0 -5 5 -10 11 -10 5 0 7 5 4 10 -3 6 -8 10 -11 10 -2 0
-4 -4 -4 -10z"/>
<path d="M1815 1920 c-3 -5 -1 -10 4 -10 6 0 11 5 11 10 0 6 -2 10 -4 10 -3 0
-8 -4 -11 -10z"/>
<path d="M970 1899 c6 -10 16 -19 23 -18 9 0 9 2 0 6 -7 2 -13 9 -13 14 0 6 6
7 13 3 6 -4 8 -3 4 1 -4 5 -14 10 -22 11 -12 2 -12 -2 -5 -17z"/>
<path d="M1725 1910 c-3 -5 -1 -10 4 -10 6 0 11 5 11 10 0 6 -2 10 -4 10 -3 0
-8 -4 -11 -10z"/>
<path d="M2054 1913 c5 -8 1 -13 -11 -14 -16 0 -16 -1 2 -9 11 -5 16 -9 11 -9
-5 -1 12 -17 37 -36 25 -19 50 -42 55 -51 7 -13 15 -9 46 22 20 20 35 38 33
41 -2 2 -19 -11 -36 -29 -32 -33 -33 -33 -49 -12 -10 11 -26 26 -37 32 -11 6
-14 12 -7 12 6 0 12 5 12 11 0 8 -4 8 -14 0 -12 -10 -17 -8 -27 11 -7 13 -11
25 -10 26 2 2 -1 7 -5 10 -4 4 -4 1 0 -5z"/>
<path d="M130 1899 c0 -5 5 -7 10 -4 6 3 10 8 10 11 0 2 -4 4 -10 4 -5 0 -10
-5 -10 -11z"/>
<path d="M255 1900 c-3 -5 -3 -10 2 -10 4 0 2 -4 -6 -9 -9 -6 -10 -11 -2 -15
10 -6 13 -1 10 21 0 4 8 10 18 14 16 7 16 8 1 8 -9 1 -20 -3 -23 -9z"/>
<path d="M473 1892 c0 -12 5 -22 9 -22 11 0 10 12 -2 30 -7 12 -9 10 -7 -8z"/>
<path d="M495 1900 c3 -5 8 -10 11 -10 2 0 4 5 4 10 0 6 -5 10 -11 10 -5 0 -7
-4 -4 -10z"/>
<path d="M1608 1902 c8 -5 13 -13 12 -18 0 -5 7 -10 17 -11 17 -3 17 -2 0 5
-10 4 -18 12 -17 17 1 5 -4 11 -12 13 -11 3 -11 2 0 -6z"/>
<path d="M1687 1897 c-3 -8 4 -13 22 -14 14 0 18 1 8 4 -9 2 -15 9 -12 14 4 5
2 9 -3 9 -6 0 -12 -6 -15 -13z"/>
<path d="M1898 1877 l-26 -33 21 -14 c12 -8 28 -13 35 -12 7 2 11 -3 10 -9 -2
-7 6 -14 17 -16 18 -3 18 -2 2 5 -10 4 -18 12 -18 17 1 6 -5 10 -11 10 -16 0
-42 24 -35 31 3 3 15 1 26 -6 14 -7 21 -7 21 0 0 5 -7 10 -15 10 -8 0 -15 5
-15 11 0 5 4 8 8 5 4 -2 9 4 9 15 1 10 1 19 0 19 -1 0 -14 -15 -29 -33z"/>
<path d="M2603 1902 c10 -4 18 -12 17 -17 -1 -5 4 -11 12 -13 11 -3 11 -2 0 6
-8 5 -13 13 -12 18 0 5 -7 10 -17 11 -17 3 -17 2 0 -5z"/>
<path d="M75 1890 c-3 -5 -4 -14 -1 -19 3 -5 -4 -21 -15 -35 -24 -31 -25 -28
53 -106 29 -28 35 -39 26 -48 -9 -9 -9 -12 0 -12 7 0 12 5 12 11 0 5 6 7 13 3
15 -9 -25 37 -77 88 -22 21 -36 41 -32 45 3 4 35 -23 71 -59 35 -36 61 -69 58
-72 -4 -3 -2 -6 4 -6 25 0 16 16 -50 80 -39 38 -68 72 -64 76 7 7 151 -133
160 -156 4 -12 6 -12 6 2 1 9 -36 53 -81 97 -45 45 -77 81 -70 81 7 0 12 5 12
11 0 5 -4 7 -10 4 -5 -3 -10 -2 -10 4 0 5 6 12 13 14 9 4 9 6 0 6 -6 1 -15 -3
-18 -9z"/>
<path d="M113 1875 c1 -18 12 -40 29 -57 36 -35 37 -23 1 14 -15 15 -21 28
-15 28 7 0 12 5 12 11 0 5 -4 8 -9 4 -5 -3 -12 3 -14 12 -3 10 -4 5 -4 -12z"/>
<path d="M334 1885 c-4 -8 -10 -12 -15 -9 -5 3 -12 -2 -15 -10 -3 -9 -10 -16
-16 -16 -5 0 -6 5 -3 10 3 6 1 10 -5 10 -7 0 -10 -6 -7 -12 2 -7 11 -13 21
-13 9 0 20 -5 24 -11 4 -6 13 -4 25 8 9 10 13 18 8 18 -6 0 -13 -5 -16 -10 -7
-12 -25 -4 -25 11 0 6 4 8 8 5 5 -3 16 4 25 15 9 10 12 19 7 19 -6 0 -13 -7
-16 -15z"/>
<path d="M405 1890 c-3 -5 -1 -10 4 -10 6 0 11 5 11 10 0 6 -2 10 -4 10 -3 0
-8 -4 -11 -10z"/>
<path d="M450 1887 c0 -9 -3 -16 -7 -15 -5 2 -34 -24 -65 -56 -46 -47 -59 -56
-64 -42 -3 9 -11 16 -17 16 -5 0 -2 -9 8 -20 10 -11 16 -23 13 -26 -3 -3 -15
7 -27 22 -11 15 -21 23 -21 18 0 -5 11 -22 25 -38 35 -41 31 -58 -5 -18 -17
18 -30 28 -30 22 0 -5 16 -25 35 -43 19 -18 32 -36 28 -40 -11 -12 -122 108
-119 129 2 11 1 13 -1 6 -3 -7 -9 -10 -14 -7 -5 4 -9 1 -9 -4 0 -6 5 -11 12
-11 6 0 9 -3 5 -6 -3 -3 12 -23 33 -43 30 -29 37 -40 28 -49 -9 -9 -9 -12 0
-12 7 0 12 5 12 12 0 6 14 -1 32 -18 17 -16 28 -24 24 -17 -3 6 -2 14 4 18 5
3 10 1 10 -6 0 -7 3 -9 7 -6 3 4 -2 16 -12 27 -18 20 -17 21 58 95 72 70 98
91 81 63 -4 -7 -3 -8 4 -4 17 10 15 26 -3 26 -7 0 -19 -8 -24 -17 -6 -10 -11
-15 -11 -11 0 3 -27 -21 -60 -54 -33 -34 -60 -56 -60 -49 0 7 25 38 55 68 30
31 55 60 55 65 0 5 5 6 10 3 11 -7 26 22 16 32 -3 4 -6 -1 -6 -10z"/>
<path d="M520 1884 c0 -8 -4 -12 -10 -9 -5 3 -10 1 -10 -4 0 -6 5 -11 12 -11
6 0 3 -9 -7 -20 -10 -11 -23 -20 -29 -20 -18 0 -137 -120 -131 -130 10 -17 23
-11 63 25 22 19 42 32 46 28 3 -3 6 -1 6 5 0 20 -14 14 -53 -23 -20 -19 -42
-35 -49 -35 -7 0 16 27 50 60 34 33 65 60 70 60 19 0 48 36 50 63 1 15 0 27
-3 27 -3 0 -5 -7 -5 -16z"/>
<path d="M582 1859 c22 -23 46 -42 54 -43 18 -3 55 -42 47 -50 -4 -3 -1 -6 5
-6 7 0 12 4 12 8 0 14 -38 53 -53 56 -8 1 -32 19 -52 39 -20 20 -41 37 -45 37
-4 0 10 -18 32 -41z"/>
<path d="M824 1882 c1 -7 5 -12 10 -12 5 1 12 -4 17 -12 11 -18 49 -20 42 -2
-3 8 -9 14 -15 14 -5 0 -6 -4 -3 -10 3 -5 2 -10 -3 -10 -6 0 -13 7 -16 16 -3
8 -10 13 -15 10 -5 -4 -11 -1 -14 6 -3 10 -4 10 -3 0z"/>
<path d="M860 1890 c0 -5 5 -10 11 -10 5 0 7 5 4 10 -3 6 -8 10 -11 10 -2 0
-4 -4 -4 -10z"/>
<path d="M923 1893 c9 -2 15 -9 12 -14 -4 -5 -2 -9 3 -9 6 0 12 6 15 13 3 8
-4 13 -22 14 -14 0 -18 -1 -8 -4z"/>
<path d="M1657 1880 c10 -11 19 -20 21 -20 1 0 -2 9 -8 20 -6 11 -15 20 -20
20 -6 0 -2 -9 7 -20z"/>
<path d="M1943 1885 c2 -11 9 -19 15 -17 7 1 12 -2 12 -8 0 -5 25 -34 56 -65
51 -50 58 -54 69 -38 10 14 9 19 -5 32 -10 9 -30 28 -44 43 -14 15 -26 23 -26
18 0 -6 17 -26 37 -45 20 -19 34 -38 30 -41 -4 -4 -25 11 -47 34 -22 22 -40
37 -40 34 -1 -4 -6 3 -13 15 -7 12 -16 22 -22 22 -5 0 -13 8 -17 18 -7 16 -8
16 -5 -2z"/>
<path d="M150 1880 c0 -5 7 -7 15 -4 8 4 15 8 15 10 0 2 -7 4 -15 4 -8 0 -15
-4 -15 -10z"/>
<path d="M210 1880 c0 -5 5 -10 11 -10 5 0 7 5 4 10 -3 6 -8 10 -11 10 -2 0
-4 -4 -4 -10z"/>
<path d="M897 1875 c3 -8 9 -12 14 -9 12 7 11 11 -5 17 -10 4 -13 1 -9 -8z"/>
<path d="M540 1871 c0 -6 6 -11 13 -11 6 0 -6 -18 -28 -39 -22 -21 -45 -36
-51 -34 -7 2 -15 0 -19 -6 -4 -7 0 -8 11 -4 13 5 15 3 9 -8 -9 -15 37 22 67
55 10 11 21 16 25 13 3 -4 -4 -18 -17 -32 -13 -14 -20 -25 -16 -25 4 0 16 10
26 23 10 12 22 18 26 14 5 -4 2 -13 -6 -18 -12 -9 -11 -10 4 -5 10 4 25 1 32
-5 27 -22 13 -2 -31 45 -25 27 -45 44 -45 37z"/>
<path d="M968 1855 c2 -14 8 -25 12 -25 10 0 1 38 -10 45 -4 2 -5 -7 -2 -20z"/>
<path d="M1780 1869 c0 -5 5 -7 10 -4 6 3 10 8 10 11 0 2 -4 4 -10 4 -5 0 -10
-5 -10 -11z"/>
<path d="M2466 1865 c-3 -10 0 -12 11 -8 9 4 14 2 10 -3 -3 -6 12 -30 34 -53
59 -65 47 -74 -16 -11 -60 61 -81 80 -90 80 -3 0 -3 -4 0 -10 3 -5 -1 -10 -10
-10 -9 0 -14 4 -11 8 2 4 -4 8 -14 8 -11 0 -17 -2 -15 -4 2 -2 -4 -12 -13 -22
-49 -52 -59 -80 -29 -80 7 0 6 4 -3 10 -9 6 -10 10 -3 10 6 0 15 9 18 20 7 23
32 50 45 50 5 0 -2 -16 -15 -36 -14 -20 -23 -40 -20 -44 3 -4 -2 -13 -11 -21
-12 -10 -19 -9 -35 8 l-20 20 25 31 c22 25 23 30 9 27 -10 -1 -23 2 -30 7 -9
7 -11 0 -8 -27 3 -35 3 -36 -16 -19 -33 30 -20 9 21 -35 l40 -42 38 41 c22 22
42 37 45 33 4 -3 7 -1 7 5 0 16 -10 15 -32 -5 -23 -21 -24 -2 0 24 36 41 51
37 118 -32 35 -35 64 -70 64 -77 0 -7 -23 11 -50 39 -28 29 -50 49 -50 44 0
-5 20 -29 44 -54 33 -33 42 -47 33 -56 -8 -8 -8 -11 0 -11 6 0 14 8 18 18 7
16 8 15 16 -3 l9 -20 -4 20 c-2 11 -7 29 -12 40 l-7 20 23 -20 24 -20 -22 29
c-27 35 -27 37 -2 64 12 12 16 22 11 22 -6 0 -15 -10 -22 -21 -11 -22 -12 -21
-44 12 -18 19 -29 36 -24 39 4 3 0 11 -11 17 -14 10 -19 9 -24 -2z m-156 -40
c0 -2 -7 -8 -15 -15 -12 -10 -15 -10 -15 2 0 8 7 15 15 15 8 0 15 -1 15 -2z"/>
<path d="M176 1858 c5 -8 2 -9 -9 -5 -10 3 -17 2 -17 -4 0 -6 13 -8 30 -5 17
2 30 0 30 -5 0 -5 5 -9 11 -9 5 0 7 5 4 10 -3 6 -2 10 4 10 5 0 12 -5 14 -10
3 -6 4 -5 3 2 -2 7 -15 13 -29 12 -15 -1 -27 3 -27 7 0 5 -5 9 -11 9 -5 0 -7
-5 -3 -12z"/>
<path d="M390 1858 c0 -6 -3 -8 -6 -5 -4 4 -19 -8 -35 -26 -24 -27 -29 -29
-34 -14 -4 9 -11 17 -17 17 -5 0 -7 -4 -3 -9 3 -5 0 -11 -7 -14 -7 -2 -5 -3 5
-1 9 1 20 -3 25 -9 5 -8 22 2 51 31 24 23 39 42 33 42 -7 0 -12 -5 -12 -12z"/>
<path d="M997 1850 c3 -11 7 -20 9 -20 2 0 4 9 4 20 0 11 -4 20 -9 20 -5 0 -7
-9 -4 -20z"/>
<path d="M1690 1858 c0 -6 -17 -28 -37 -49 -21 -20 -39 -42 -41 -49 -1 -6 19
10 45 37 45 45 61 73 41 73 -4 0 -8 -5 -8 -12z"/>
<path d="M1723 1856 c3 -7 -12 -29 -34 -50 -22 -20 -37 -36 -34 -36 3 0 -3 -8
-12 -18 -10 -11 -21 -17 -24 -16 -3 2 -6 -3 -6 -11 0 -8 4 -15 9 -15 4 0 8 4
8 9 0 5 25 35 54 66 34 34 53 62 49 71 -3 8 -7 14 -10 14 -3 0 -3 -6 0 -14z"/>
<path d="M1995 1860 c3 -5 8 -10 11 -10 2 0 4 5 4 10 0 6 -5 10 -11 10 -5 0
-7 -4 -4 -10z"/>
<path d="M2148 1858 c-6 -15 1 -38 10 -38 4 0 13 10 21 23 10 17 11 19 0 10
-18 -18 -34 -16 -19 2 7 9 8 15 2 15 -5 0 -12 -6 -14 -12z"/>
<path d="M2594 1850 c0 -11 4 -20 8 -20 4 0 8 9 8 20 0 11 -4 20 -8 20 -4 0
-8 -9 -8 -20z"/>
<path d="M800 1853 c8 -4 20 -13 27 -22 7 -9 13 -11 13 -6 1 6 6 1 11 -10 l9
-20 -3 20 c-1 11 -6 18 -10 15 -5 -3 -13 3 -18 13 -6 9 -18 17 -27 16 -14 0
-14 -2 -2 -6z"/>
<path d="M916 1853 c-10 -10 -7 -23 5 -23 5 0 7 5 4 10 -15 25 12 7 30 -20 11
-16 24 -30 28 -30 5 0 6 4 2 9 -3 5 0 11 7 14 7 2 5 3 -4 2 -19 -3 -43 19 -35
32 6 10 -28 15 -37 6z"/>
<path d="M1621 1848 c-1 -23 19 -34 30 -17 12 19 11 29 -2 29 -5 0 -8 -4 -4
-9 3 -5 1 -12 -4 -15 -5 -4 -12 2 -14 11 -4 16 -5 16 -6 1z"/>
<path d="M1800 1852 c0 -4 18 -26 39 -49 22 -23 38 -49 37 -60 -2 -10 -1 -12
1 -5 3 7 9 10 14 7 5 -4 9 -1 9 4 0 6 -5 11 -12 11 -6 0 -9 3 -5 6 3 3 -12 23
-34 43 -21 21 -36 41 -32 44 3 4 1 7 -5 7 -7 0 -12 -3 -12 -8z"/>
<path d="M2085 1816 l48 -44 -27 -28 -26 -29 -40 43 c-22 23 -40 39 -40 35 0
-5 -5 0 -11 10 -5 9 -15 17 -20 17 -6 0 15 -25 46 -55 32 -30 61 -55 66 -55
11 0 59 49 59 60 0 12 -81 90 -94 90 -4 0 13 -20 39 -44z"/>
<path d="M21 1832 c-6 -12 -6 -23 1 -33 8 -11 9 -11 4 3 -3 10 2 24 10 33 9 8
11 15 5 15 -6 0 -15 -8 -20 -18z"/>
<path d="M1950 1840 c0 -5 5 -10 11 -10 5 0 7 5 4 10 -3 6 -8 10 -11 10 -2 0
-4 -4 -4 -10z"/>
<path d="M260 1830 c0 -5 5 -10 11 -10 5 0 7 5 4 10 -3 6 -8 10 -11 10 -2 0
-4 -4 -4 -10z"/>
<path d="M1020 1830 c0 -5 6 -10 14 -10 8 0 16 -4 18 -8 2 -4 18 -18 36 -31
32 -22 33 -22 21 -3 -7 11 -16 19 -20 16 -4 -2 -12 3 -20 12 -18 22 -49 37
-49 24z"/>
<path d="M2167 1765 l-75 -75 46 -45 c25 -25 50 -45 54 -45 5 0 -12 20 -38 45
l-48 44 69 68 c37 37 72 67 77 66 4 -2 8 2 8 7 0 22 -21 7 -93 -65z"/>
<path d="M2616 1823 c-6 -14 -5 -15 5 -6 7 7 10 15 7 18 -3 3 -9 -2 -12 -12z"/>
<path d="M175 1820 c3 -5 8 -10 11 -10 2 0 4 5 4 10 0 6 -5 10 -11 10 -5 0 -7
-4 -4 -10z"/>
<path d="M883 1822 c10 -4 18 -12 17 -17 0 -6 7 -11 17 -12 17 -3 17 -2 0 5
-10 4 -18 12 -17 17 0 6 -7 11 -17 12 -17 3 -17 2 0 -5z"/>
<path d="M2415 1820 c3 -5 8 -10 11 -10 2 0 4 5 4 10 0 6 -5 10 -11 10 -5 0
-7 -4 -4 -10z"/>
<path d="M228 1813 c7 -3 16 -2 19 1 4 3 -2 6 -13 5 -11 0 -14 -3 -6 -6z"/>
<path d="M780 1808 c0 -3 9 -6 20 -5 11 1 20 5 20 9 0 3 -9 6 -20 5 -11 -1
-20 -5 -20 -9z"/>
<path d="M945 1793 c14 -15 25 -31 25 -35 0 -5 5 -8 11 -8 5 0 7 5 4 10 -3 6
-2 10 4 10 5 0 12 -5 14 -10 3 -6 4 -5 3 2 -2 7 -11 12 -20 12 -9 -1 -24 9
-33 22 -8 13 -19 24 -25 24 -5 0 3 -12 17 -27z"/>
<path d="M1610 1810 c0 -5 5 -10 11 -10 5 0 7 5 4 10 -3 6 -8 10 -11 10 -2 0
-4 -4 -4 -10z"/>
<path d="M2440 1804 c0 -8 -4 -12 -10 -9 -5 3 -10 1 -10 -4 0 -6 5 -11 12 -11
6 0 9 -3 5 -6 -3 -3 11 -22 32 -43 21 -20 41 -43 44 -51 5 -13 6 -13 6 0 1 8
-17 34 -38 57 -28 30 -38 47 -34 62 3 12 3 21 -1 21 -3 0 -6 -7 -6 -16z"/>
<path d="M830 1801 c0 -5 8 -15 18 -20 9 -6 13 -11 9 -11 -4 0 10 -17 32 -37
22 -20 38 -39 36 -43 -3 -4 4 -7 15 -6 11 0 20 4 20 9 0 4 0 10 0 15 0 11 -60
76 -60 66 -1 -5 -7 2 -15 16 -8 14 -14 20 -15 13 0 -7 21 -33 46 -58 26 -25
44 -48 40 -52 -3 -3 -33 22 -66 56 -33 35 -60 58 -60 52z"/>
<path d="M220 1788 c0 -3 9 -6 20 -5 11 1 20 5 20 9 0 3 -9 6 -20 5 -11 -1
-20 -5 -20 -9z"/>
<path d="M640 1791 c0 -6 4 -13 10 -16 6 -3 7 1 4 9 -7 18 -14 21 -14 7z"/>
<path d="M1005 1790 c3 -5 8 -10 11 -10 2 0 4 5 4 10 0 6 -5 10 -11 10 -5 0
-7 -4 -4 -10z"/>
<path d="M2598 1793 c7 -3 16 -2 19 1 4 3 -2 6 -13 5 -11 0 -14 -3 -6 -6z"/>
<path d="M805 1780 c11 -5 17 -9 13 -9 -4 -1 13 -20 37 -43 24 -23 41 -46 39
-50 -3 -4 0 -8 5 -8 6 0 11 4 11 9 0 14 -98 111 -112 110 -7 0 -4 -4 7 -9z"/>
<path d="M1030 1778 c0 -6 3 -8 6 -5 12 11 42 -12 40 -30 -2 -10 -1 -12 1 -5
3 7 9 10 14 7 5 -4 9 -2 9 2 0 8 -52 43 -64 43 -3 0 -6 -5 -6 -12z"/>
<path d="M2182 1740 l-50 -50 50 -50 c27 -28 53 -48 56 -46 4 2 23 -12 42 -30
37 -36 29 -48 -9 -15 -13 11 -29 17 -37 14 -9 -3 -14 0 -12 8 2 7 -6 14 -17
16 -18 3 -18 2 -2 -5 10 -4 19 -12 20 -17 1 -6 7 -10 14 -10 7 0 18 -6 25 -13
11 -11 8 -12 -14 -8 -16 3 -28 0 -28 -6 0 -5 7 -8 15 -4 8 3 28 -6 45 -20 30
-26 56 -24 46 3 -4 10 22 43 74 95 44 45 80 84 80 88 0 4 -18 25 -40 47 l-40
41 -40 -41 -40 -42 -36 37 -35 38 -38 -40 -38 -41 33 -33 c19 -19 34 -30 34
-25 0 5 17 -7 37 -26 20 -19 40 -35 43 -35 11 0 131 122 126 127 -3 3 -32 -23
-65 -58 -33 -34 -64 -60 -67 -56 -4 3 23 37 60 74 62 63 67 66 83 50 16 -15
12 -21 -60 -92 l-76 -75 -36 32 c-19 18 -39 33 -43 33 -5 0 -28 19 -52 43
l-45 43 30 27 c37 33 70 72 62 72 -3 0 -28 -22 -55 -50z m178 -19 c21 24 42
40 46 36 4 -3 -14 -28 -40 -54 l-46 -48 -40 42 c-22 23 -40 39 -40 34 0 -4 18
-27 40 -50 l40 -42 50 53 c27 28 52 49 56 46 3 -4 -19 -33 -50 -65 l-56 -58
-36 38 c-19 20 -40 34 -46 30 -7 -4 -9 0 -5 10 4 11 2 14 -9 10 -16 -6 -19
-22 -4 -24 6 -1 14 -2 19 -3 15 -2 73 -67 66 -74 -4 -4 -20 8 -36 26 -16 18
-29 28 -29 22 0 -6 -12 1 -27 15 l-28 25 28 25 c15 14 27 31 27 38 0 7 18 -8
40 -32 l40 -44 40 44z m-43 -214 c2 -14 -2 -15 -17 -7 -29 16 -32 28 -7 26 14
0 24 -8 24 -19z"/>
<path d="M945 1754 c14 -15 25 -31 25 -35 0 -5 5 -9 11 -9 5 0 8 4 4 9 -3 5 0
11 7 14 7 2 5 3 -4 2 -9 -2 -24 8 -33 21 -8 13 -20 24 -25 24 -5 0 2 -12 15
-26z"/>
<path d="M1941 1770 c-1 -9 8 -23 19 -33 21 -18 26 -12 10 13 -5 8 -10 11 -11
5 0 -5 -4 -1 -9 10 -6 14 -9 15 -9 5z"/>
<path d="M2006 1735 l48 -45 -61 -59 c-33 -33 -58 -63 -55 -66 5 -5 -14 -9
-30 -6 -5 0 -8 -4 -8 -9 0 -23 24 -6 94 65 l74 76 -46 44 c-25 25 -50 45 -54
45 -5 0 12 -20 38 -45z"/>
<path d="M2584 1764 c3 -9 6 -18 6 -20 0 -2 5 -4 11 -4 8 0 9 4 0 13 -6 8 -8
17 -4 20 3 4 1 7 -6 7 -8 0 -11 -6 -7 -16z"/>
<path d="M235 1760 c3 -5 8 -10 11 -10 2 0 4 5 4 10 0 6 -5 10 -11 10 -5 0 -7
-4 -4 -10z"/>
<path d="M726 1745 c9 -14 20 -25 25 -25 5 0 -1 11 -13 25 -12 14 -23 25 -25
25 -2 0 4 -11 13 -25z"/>
<path d="M790 1763 c0 -9 58 -73 66 -73 9 0 3 10 -31 44 -19 20 -35 33 -35 29z"/>
<path d="M64 1741 c20 -22 26 -25 26 -13 0 4 -10 13 -22 21 -23 14 -23 14 -4
-8z"/>
<path d="M1020 1748 c0 -3 9 -6 20 -5 11 1 20 5 20 9 0 3 -9 6 -20 5 -11 -1
-20 -5 -20 -9z"/>
<path d="M1138 1748 c11 -14 10 -18 -5 -27 -10 -6 -13 -11 -7 -11 6 0 17 6 23
14 9 10 7 17 -6 27 -16 13 -17 12 -5 -3z"/>
<path d="M1845 1750 c3 -5 8 -10 11 -10 2 0 4 5 4 10 0 6 -5 10 -11 10 -5 0
-7 -4 -4 -10z"/>
<path d="M695 1740 c3 -5 8 -10 11 -10 2 0 4 5 4 10 0 6 -5 10 -11 10 -5 0 -7
-4 -4 -10z"/>
<path d="M765 1740 c11 -5 16 -9 10 -9 -5 -1 1 -8 13 -17 22 -15 22 -17 7 -34
-9 -10 -15 -27 -12 -37 4 -16 5 -15 6 3 1 26 20 44 38 37 8 -3 -1 11 -20 31
-19 20 -41 36 -48 35 -8 0 -5 -4 6 -9z"/>
<path d="M1110 1740 c0 -5 5 -10 11 -10 5 0 7 5 4 10 -3 6 -8 10 -11 10 -2 0
-4 -4 -4 -10z"/>
<path d="M1645 1718 c-13 -41 -13 -48 -4 -48 6 0 9 6 8 13 -1 6 1 20 6 30 4
10 5 20 3 23 -3 3 -9 -6 -13 -18z"/>
<path d="M1038 1723 c7 -3 16 -2 19 1 4 3 -2 6 -13 5 -11 0 -14 -3 -6 -6z"/>
<path d="M1090 1720 c0 -5 5 -10 11 -10 5 0 7 5 4 10 -3 6 -8 10 -11 10 -2 0
-4 -4 -4 -10z"/>
<path d="M1890 1720 c0 -5 5 -10 11 -10 5 0 7 5 4 10 -3 6 -8 10 -11 10 -2 0
-4 -4 -4 -10z"/>
<path d="M1950 1721 c0 -6 7 -14 15 -19 13 -7 11 -12 -14 -34 -16 -15 -31 -25
-33 -23 -2 2 -4 -5 -5 -15 -1 -15 8 -10 38 22 39 41 39 41 19 60 -11 10 -20
14 -20 9z"/>
<path d="M1990 1722 c0 -4 6 -14 12 -20 10 -10 7 -18 -17 -40 -37 -33 -70 -72
-62 -72 3 0 28 23 56 51 49 50 50 50 30 70 -10 10 -19 15 -19 11z"/>
<path d="M100 1711 c0 -6 4 -13 10 -16 6 -3 7 1 4 9 -7 18 -14 21 -14 7z"/>
<path d="M727 1700 c10 -11 19 -20 21 -20 1 0 -2 9 -8 20 -6 11 -15 20 -20 20
-6 0 -2 -9 7 -20z"/>
<path d="M1005 1710 c3 -5 8 -10 11 -10 2 0 4 5 4 10 0 6 -5 10 -11 10 -5 0
-7 -4 -4 -10z"/>
<path d="M1164 1712 c-13 -9 -14 -42 -1 -42 5 0 7 6 4 14 -3 7 0 19 6 25 12
12 8 14 -9 3z"/>
<path d="M758 1703 c6 -2 10 -9 6 -14 -3 -5 -1 -9 5 -9 17 0 21 18 5 24 -9 3
-19 6 -22 5 -4 0 -1 -3 6 -6z"/>
<path d="M1026 1695 c-3 -8 -1 -15 4 -15 6 0 10 7 10 15 0 8 -2 15 -4 15 -2 0
-6 -7 -10 -15z"/>
<path d="M1061 1693 c7 -10 14 -19 15 -21 1 -2 4 4 8 13 3 9 2 13 -4 10 -6 -3
-10 -1 -10 4 0 6 -5 11 -11 11 -8 0 -7 -6 2 -17z"/>
<path d="M1868 1692 c9 -10 19 -14 21 -9 2 5 -3 13 -10 18 -24 15 -30 10 -11
-9z"/>
<path d="M1910 1699 c-11 -8 -9 -9 10 -3 22 6 23 5 11 -9 -7 -9 -17 -14 -22
-11 -5 3 -9 0 -9 -5 0 -15 11 -13 34 4 10 7 15 18 11 24 -8 14 -16 14 -35 0z"/>
<path d="M976 1685 c-3 -8 -1 -15 4 -15 6 0 10 5 10 11 0 5 5 7 12 3 7 -4 8
-3 4 4 -10 16 -23 15 -30 -3z"/>
<path d="M1097 1686 c-6 -15 19 -30 34 -20 5 3 8 13 8 22 -1 15 -2 15 -6 0 -2
-10 -9 -18 -15 -18 -5 0 -8 7 -4 15 3 8 1 15 -3 15 -5 0 -11 -6 -14 -14z"/>
<path d="M1183 1688 c1 -6 -10 -18 -25 -25 -16 -8 -28 -20 -28 -27 0 -21 -58
-58 -80 -51 -12 4 -20 2 -20 -5 0 -6 4 -9 9 -5 5 3 12 1 16 -5 3 -5 -2 -10
-11 -10 -10 0 -15 -3 -11 -6 9 -9 -21 -36 -33 -29 -14 9 -13 26 2 23 6 -2 13
4 13 12 1 8 0 9 -2 2 -3 -7 -8 -10 -13 -7 -14 9 -22 -13 -11 -34 16 -29 -13
-50 -37 -27 -10 9 -23 16 -28 16 -4 0 1 -7 13 -15 12 -9 20 -21 17 -29 -3 -7
6 -23 18 -37 23 -23 160 -180 165 -188 1 -2 16 11 33 28 36 35 40 37 40 15 0
-8 -4 -13 -8 -10 -5 3 -16 -4 -25 -15 -9 -10 -13 -19 -7 -19 5 0 13 7 18 16 5
9 13 17 18 17 5 1 9 11 8 21 -1 20 29 56 46 56 6 0 10 7 10 15 0 8 4 15 9 15
4 0 23 16 42 35 19 19 44 42 57 51 21 14 23 13 32 -8 6 -17 9 -19 9 -6 1 17
-216 248 -232 248 -4 0 -6 -5 -4 -12z"/>
<path d="M1604 1683 c0 -11 -5 -17 -14 -15 -8 2 -12 0 -8 -4 4 -4 3 -13 -3
-21 -6 -7 -8 -13 -4 -13 10 0 44 43 45 58 0 6 -4 12 -9 12 -5 0 -8 -8 -7 -17z"/>
<path d="M1660 1692 c0 -4 9 -8 20 -9 11 -1 20 2 20 5 0 4 -9 8 -20 9 -11 1
-20 -2 -20 -5z"/>
<path d="M1850 1680 c0 -5 5 -10 11 -10 5 0 7 5 4 10 -3 6 -8 10 -11 10 -2 0
-4 -4 -4 -10z"/>
<path d="M205 1670 c-3 -5 -1 -10 4 -10 6 0 11 5 11 10 0 6 -2 10 -4 10 -3 0
-8 -4 -11 -10z"/>
<path d="M845 1670 c-3 -5 -1 -10 4 -10 6 0 11 5 11 10 0 6 -2 10 -4 10 -3 0
-8 -4 -11 -10z"/>
<path d="M1045 1670 c-3 -5 -1 -10 4 -10 6 0 11 5 11 10 0 6 -2 10 -4 10 -3 0
-8 -4 -11 -10z"/>
<path d="M1817 1660 c-9 -11 -13 -20 -7 -20 5 0 14 9 20 20 6 11 9 20 8 20 -2
0 -11 -9 -21 -20z"/>
<path d="M2463 1645 c-17 -18 -29 -36 -26 -39 4 -3 1 -6 -5 -6 -7 0 -12 -5
-12 -11 0 -5 4 -8 9 -4 5 3 11 0 14 -7 2 -7 3 -5 1 5 -3 22 33 66 43 52 5 -5
17 -17 28 -25 16 -12 16 -10 -3 11 -14 16 -20 32 -16 42 8 22 5 20 -33 -18z"/>
<path d="M161 1661 c-7 -5 -9 -11 -5 -14 5 -3 15 1 22 9 14 16 5 18 -17 5z"/>
<path d="M807 1657 c-3 -8 4 -13 22 -14 14 0 18 1 8 4 -9 2 -15 9 -12 14 4 5
2 9 -3 9 -6 0 -12 -6 -15 -13z"/>
<path d="M930 1659 c0 -5 5 -7 10 -4 6 3 10 8 10 11 0 2 -4 4 -10 4 -5 0 -10
-5 -10 -11z"/>
<path d="M1010 1659 c0 -5 5 -7 10 -4 6 3 10 8 10 11 0 2 -4 4 -10 4 -5 0 -10
-5 -10 -11z"/>
<path d="M1633 1633 c-18 -21 -33 -32 -33 -25 0 6 9 21 20 32 11 11 16 20 10
20 -16 0 -42 -48 -33 -62 6 -10 16 -5 40 20 17 17 28 32 25 33 -4 0 2 4 13 9
14 6 15 9 5 9 -9 1 -30 -16 -47 -36z"/>
<path d="M1779 1663 c-1 -5 -1 -11 0 -15 0 -5 -3 -8 -9 -8 -5 0 -34 -25 -65
-56 l-55 -56 22 -18 c13 -10 20 -21 16 -25 -4 -4 -19 5 -35 19 l-28 26 43 40
c23 22 39 40 35 40 -5 0 0 5 10 11 9 5 17 15 17 20 0 6 -25 -15 -55 -46 -30
-32 -55 -61 -55 -66 0 -10 48 -59 58 -59 26 1 31 18 11 39 l-21 22 40 40 c22
21 37 39 34 39 -4 1 3 6 15 13 12 7 22 16 22 22 0 5 8 12 18 16 17 7 17 8 1 8
-10 1 -19 -2 -19 -6z"/>
<path d="M2015 1615 c-31 -30 -52 -55 -46 -55 5 0 15 8 20 18 6 9 11 14 11 9
0 -4 18 12 40 35 l40 43 40 -43 c22 -23 40 -39 40 -35 0 5 5 0 11 -9 5 -10 15
-18 20 -18 6 0 -15 25 -46 55 -32 30 -61 55 -65 55 -4 0 -33 -25 -65 -55z"/>
<path d="M222 1653 c-10 -4 -9 -8 5 -19 22 -16 33 -18 33 -3 0 5 -4 8 -9 4 -5
-3 -12 -1 -15 4 -4 5 2 12 11 14 12 3 13 5 3 5 -8 0 -21 -2 -28 -5z"/>
<path d="M273 1639 c3 -13 0 -22 -10 -26 -12 -5 -12 -7 -1 -14 7 -5 18 -9 23
-9 6 0 4 4 -4 9 -11 7 -10 11 6 20 11 5 24 7 28 3 5 -4 5 -1 1 6 -5 7 -15 11
-23 8 -11 -4 -13 -2 -9 9 3 8 0 15 -5 15 -7 0 -9 -9 -6 -21z"/>
<path d="M866 1644 c-9 -23 -4 -24 17 -2 13 14 14 18 3 18 -8 0 -17 -7 -20
-16z"/>
<path d="M913 1639 c1 -18 6 -25 14 -22 7 3 13 9 13 15 0 5 -4 7 -9 3 -5 -3
-12 3 -14 12 -3 10 -4 6 -4 -8z"/>
<path d="M959 1658 c-1 -2 -3 -13 -4 -25 -1 -14 2 -20 11 -16 8 3 14 9 14 15
0 5 -4 6 -10 3 -5 -3 -10 -2 -10 4 0 5 6 12 13 14 10 4 10 6 0 6 -7 1 -14 0
-14 -1z"/>
<path d="M995 1638 c4 -23 -20 -42 -45 -35 -11 3 -18 1 -14 -4 9 -15 37 -10
62 10 21 19 31 38 13 26 -5 -3 -11 0 -14 7 -2 7 -3 5 -2 -4z"/>
<path d="M1062 1653 c-10 -4 -8 -9 7 -20 12 -8 18 -19 15 -25 -4 -7 -2 -8 4
-4 15 9 15 12 -4 30 -10 11 -11 16 -3 16 6 0 18 -8 26 -17 13 -16 13 -16 3 5
-11 22 -22 25 -48 15z"/>
<path d="M1740 1649 c0 -5 5 -7 10 -4 6 3 10 8 10 11 0 2 -4 4 -10 4 -5 0 -10
-5 -10 -11z"/>
<path d="M1847 1643 c3 -7 9 -13 15 -13 5 0 7 4 3 9 -3 5 3 12 12 14 10 3 6 4
-8 4 -18 -1 -25 -6 -22 -14z"/>
<path d="M2510 1650 c0 -5 7 -7 15 -4 11 5 14 2 9 -12 -7 -20 -6 -19 13 6 10
13 8 16 -13 18 -13 1 -24 -3 -24 -8z"/>
<path d="M180 1634 c-8 -8 -9 -14 -4 -13 24 4 36 -2 30 -17 -3 -9 -2 -12 5 -9
6 4 20 -1 31 -12 l22 -18 -20 27 c-10 15 -27 30 -37 33 -9 4 -15 11 -12 16 10
15 -1 10 -15 -7z"/>
<path d="M1033 1637 c4 -11 -2 -22 -18 -33 -14 -9 -25 -20 -25 -26 0 -5 12 2
27 16 24 22 28 23 38 9 9 -12 12 -12 11 -2 0 8 -9 23 -20 33 -16 16 -18 17
-13 3z"/>
<path d="M1645 1604 c-34 -37 -42 -42 -51 -29 -12 16 -29 21 -19 6 3 -5 0 -11
-7 -14 -7 -2 -5 -3 5 -1 10 1 20 -3 23 -10 3 -9 21 3 50 32 24 25 44 50 44 54
0 12 -2 11 -45 -38z"/>
<path d="M885 1630 c-3 -5 -1 -10 4 -10 6 0 11 5 11 10 0 6 -2 10 -4 10 -3 0
-8 -4 -11 -10z"/>
<path d="M1820 1621 c-13 -25 -13 -31 2 -31 6 0 8 3 5 6 -3 4 -2 15 4 25 5 11
7 19 5 19 -3 0 -10 -9 -16 -19z"/>
<path d="M1885 1630 c3 -5 8 -10 11 -10 2 0 4 5 4 10 0 6 -5 10 -11 10 -5 0
-7 -4 -4 -10z"/>
<path d="M2030 1591 c-25 -25 -49 -53 -55 -63 -5 -9 -14 -16 -20 -15 -5 1 -11
-7 -12 -18 -3 -18 -2 -18 5 -2 4 10 12 18 17 18 6 0 15 10 22 22 7 12 12 19
13 15 0 -3 18 12 40 34 l40 41 40 -41 c22 -22 40 -37 40 -34 1 4 6 -3 13 -15
7 -12 16 -22 22 -22 5 0 13 -8 17 -18 7 -16 8 -16 5 2 -2 11 -9 19 -15 18 -7
-2 -12 1 -12 7 0 8 -109 122 -113 119 -1 -1 -22 -22 -47 -48z"/>
<path d="M810 1619 c0 -5 5 -7 10 -4 6 3 10 8 10 11 0 2 -4 4 -10 4 -5 0 -10
-5 -10 -11z"/>
<path d="M831 1607 c-13 -21 -12 -21 5 -5 10 10 16 20 13 22 -3 3 -11 -5 -18
-17z"/>
<path d="M1557 1614 c6 -15 23 -19 23 -5 0 5 -7 11 -14 14 -10 4 -13 1 -9 -9z"/>
<path d="M1790 1619 c0 -5 5 -7 10 -4 6 3 10 8 10 11 0 2 -4 4 -10 4 -5 0 -10
-5 -10 -11z"/>
<path d="M1765 1610 c-3 -5 -1 -10 4 -10 6 0 11 5 11 10 0 6 -2 10 -4 10 -3 0
-8 -4 -11 -10z"/>
<path d="M1840 1608 c0 -3 9 -6 20 -5 11 1 20 5 20 9 0 3 -9 6 -20 5 -11 -1
-20 -5 -20 -9z"/>
<path d="M2475 1611 c3 -6 1 -11 -4 -11 -6 0 -11 -5 -11 -11 0 -8 4 -8 13 0
10 8 17 7 25 -1 7 -7 12 -8 12 -2 0 5 -9 15 -21 22 -12 8 -18 9 -14 3z"/>
<path d="M856 1594 c-23 -23 -20 -30 4 -9 11 10 20 20 20 22 0 7 -9 2 -24 -13z"/>
<path d="M890 1608 c0 -2 9 -11 20 -21 11 -9 20 -13 20 -7 0 5 -9 14 -20 20
-11 6 -20 9 -20 8z"/>
<path d="M1890 1600 c0 -5 5 -10 11 -10 5 0 7 5 4 10 -3 6 -8 10 -11 10 -2 0
-4 -4 -4 -10z"/>
<path d="M1540 1590 c0 -5 5 -10 11 -10 5 0 7 5 4 10 -3 6 -8 10 -11 10 -2 0
-4 -4 -4 -10z"/>
<path d="M1783 1585 c-3 -9 -3 -18 -1 -21 3 -3 8 4 11 16 6 23 -1 27 -10 5z"/>
<path d="M874 1579 c-4 -7 -3 -9 4 -5 6 3 18 -4 26 -16 9 -12 16 -18 17 -13 0
6 4 1 9 -10 6 -14 9 -15 9 -5 1 14 -18 36 -46 53 -6 4 -15 2 -19 -4z"/>
<path d="M1725 1565 c-27 -28 -29 -33 -16 -54 7 -11 14 -8 35 15 14 16 25 34
26 39 0 6 -11 -3 -24 -20 -13 -16 -28 -27 -32 -23 -4 4 7 21 24 38 18 16 28
30 22 30 -5 0 -21 -11 -35 -25z"/>
<path d="M1855 1580 c3 -5 8 -10 11 -10 2 0 4 5 4 10 0 6 -5 10 -11 10 -5 0
-7 -4 -4 -10z"/>
<path d="M2045 1565 c-14 -14 -25 -31 -25 -37 0 -5 9 0 19 13 l19 24 24 -22
c13 -13 28 -23 34 -23 5 0 -4 11 -21 24 -16 13 -27 28 -23 32 4 4 21 -7 38
-24 16 -18 30 -28 30 -22 0 12 -48 60 -60 60 -5 0 -21 -11 -35 -25z"/>
<path d="M2378 1560 c-15 -15 -24 -31 -21 -34 4 -3 1 -6 -5 -6 -7 0 -12 -5
-12 -11 0 -5 4 -8 9 -4 5 3 11 0 14 -7 2 -7 3 -5 2 4 -3 19 23 61 34 54 4 -3
8 4 8 15 1 10 1 19 0 18 -1 -1 -14 -14 -29 -29z"/>
<path d="M940 1568 c0 -4 9 -8 20 -8 11 0 20 4 20 8 0 4 -9 8 -20 8 -11 0 -20
-4 -20 -8z"/>
<path d="M1495 1570 c-4 -6 -1 -18 6 -26 10 -12 6 -21 -24 -49 -19 -18 -38
-31 -40 -28 -3 2 -4 -7 -3 -21 2 -15 7 -30 11 -34 5 -4 5 1 2 11 -5 14 3 29
30 55 20 21 38 46 39 57 1 11 3 21 3 23 1 2 8 -4 17 -13 15 -15 13 -19 -24
-54 -22 -22 -38 -42 -35 -45 4 -3 1 -6 -5 -6 -7 0 -12 -5 -12 -11 0 -5 4 -8 9
-4 5 3 11 0 14 -7 2 -7 3 -5 1 6 -1 10 7 28 19 41 62 62 61 62 40 89 -18 22
-20 23 -32 8 -11 -16 -12 -16 -7 1 6 19 1 23 -9 7z"/>
<path d="M1801 1571 c-1 -8 -9 -20 -18 -27 -17 -12 -17 -14 5 -34 12 -11 22
-16 22 -11 0 6 -8 14 -17 20 -17 9 -17 11 1 24 10 7 16 20 13 28 -5 12 -6 12
-6 0z"/>
<path d="M1830 1573 c5 -2 10 -9 10 -14 0 -6 -4 -8 -9 -5 -16 11 -23 -28 -7
-40 17 -12 22 -29 6 -19 -5 3 -10 1 -10 -4 0 -6 5 -11 10 -11 6 0 9 -3 9 -7
-3 -21 3 -29 24 -30 l22 -2 -21 12 c-14 8 -20 20 -18 35 3 14 -2 25 -11 28
-15 6 -21 24 -7 24 4 0 20 -11 35 -25 15 -14 27 -22 27 -17 0 6 -11 17 -24 25
-13 9 -23 24 -22 33 0 9 -5 18 -12 20 -7 1 -8 0 -2 -3z"/>
<path d="M1880 1564 c0 -8 -4 -12 -10 -9 -17 11 -11 -7 8 -22 30 -23 55 -36
48 -24 -4 6 -2 11 3 11 6 0 11 5 11 11 0 8 -5 8 -15 -1 -20 -17 -45 3 -38 30
3 11 3 20 -1 20 -3 0 -6 -7 -6 -16z"/>
<path d="M2470 1570 c-9 -6 -10 -10 -3 -10 6 0 15 5 18 10 8 12 4 12 -15 0z"/>
<path d="M2420 1561 c0 -6 4 -13 10 -16 6 -3 7 1 4 9 -7 18 -14 21 -14 7z"/>
<path d="M883 1540 c14 -11 28 -20 31 -20 3 0 -3 9 -14 20 -11 11 -25 20 -31
20 -7 0 0 -9 14 -20z"/>
<path d="M1574 1530 c0 -11 4 -20 8 -20 4 0 8 9 8 20 0 11 -4 20 -8 20 -4 0
-8 -9 -8 -20z"/>
<path d="M1950 1539 c0 -5 5 -7 10 -4 6 3 10 8 10 11 0 2 -4 4 -10 4 -5 0 -10
-5 -10 -11z"/>
<path d="M2195 1540 c3 -5 8 -10 11 -10 2 0 4 5 4 10 0 6 -5 10 -11 10 -5 0
-7 -4 -4 -10z"/>
<path d="M1456 1515 c-10 -13 -22 -22 -27 -19 -5 3 -9 0 -9 -5 0 -6 3 -11 8
-11 9 1 62 47 62 55 0 13 -17 3 -34 -20z"/>
<path d="M2045 1530 c-3 -5 -2 -10 4 -10 5 0 13 5 16 10 3 6 2 10 -4 10 -5 0
-13 -4 -16 -10z"/>
<path d="M2400 1533 c8 -3 19 -11 23 -17 6 -7 7 -6 4 4 -2 8 -12 16 -23 17
-13 2 -15 1 -4 -4z"/>
<path d="M950 1520 c0 -5 5 -10 10 -10 6 0 10 5 10 10 0 6 -4 10 -10 10 -5 0
-10 -4 -10 -10z"/>
<path d="M1995 1520 c-3 -5 -1 -10 4 -10 6 0 11 5 11 10 0 6 -2 10 -4 10 -3 0
-8 -4 -11 -10z"/>
<path d="M2150 1520 c0 -5 5 -10 11 -10 5 0 7 5 4 10 -3 6 -8 10 -11 10 -2 0
-4 -4 -4 -10z"/>
<path d="M1596 1504 c-3 -7 -13 -11 -23 -10 -10 2 -12 1 -5 -1 7 -3 10 -9 7
-14 -4 -5 -2 -9 3 -9 6 0 13 7 16 16 5 13 21 2 73 -50 36 -37 63 -69 59 -73
-3 -3 -33 21 -66 54 -32 33 -61 56 -63 49 -2 -6 -12 -11 -22 -11 -10 0 -19 -6
-21 -13 -1 -7 0 -8 3 -2 2 5 9 10 14 10 6 0 7 -4 4 -10 -3 -5 -2 -10 3 -10 6
0 13 7 16 16 5 13 19 4 68 -45 45 -46 63 -59 69 -49 14 21 12 23 -61 96 -42
41 -71 64 -74 56z"/>
<path d="M1724 1483 l-32 -32 39 -41 39 -41 -20 -21 c-29 -31 -17 -34 14 -3
26 26 34 41 16 30 -5 -3 -10 -2 -10 3 0 5 -14 24 -32 41 l-32 31 26 25 c14 13
29 21 32 18 3 -4 6 -1 6 5 0 22 -16 17 -46 -15z"/>
<path d="M2057 1500 c-9 -11 -13 -20 -7 -20 5 0 14 8 20 18 10 16 10 16 20 0
6 -10 15 -18 20 -18 6 0 2 9 -7 20 -10 11 -20 20 -23 20 -3 0 -13 -9 -23 -20z"/>
<path d="M2380 1512 c0 -5 7 -9 15 -9 8 0 15 4 15 9 0 4 -7 8 -15 8 -8 0 -15
-4 -15 -8z"/>
<path d="M2015 1500 c-3 -5 -3 -10 2 -10 4 -1 -4 -8 -19 -16 -16 -8 -28 -19
-28 -25 0 -6 -4 -8 -9 -5 -5 3 -14 -1 -21 -9 -9 -10 -9 -15 -1 -15 6 0 11 5
11 10 0 6 3 9 8 9 18 -3 33 2 28 10 -3 4 6 13 20 20 14 6 23 15 19 20 -3 5 3
12 12 14 16 4 16 5 1 6 -9 0 -20 -3 -23 -9z"/>
<path d="M2123 1502 c10 -4 18 -12 18 -17 0 -6 10 -15 22 -22 12 -6 20 -13 17
-15 -3 -3 3 -12 13 -22 9 -10 17 -12 17 -6 0 6 -7 13 -15 16 -8 4 -13 10 -10
15 3 4 -6 14 -19 21 -14 7 -25 18 -25 23 0 6 -8 11 -18 12 -17 3 -17 2 0 -5z"/>
<path d="M2253 1487 c12 -13 26 -21 31 -19 5 3 7 -1 4 -10 -4 -9 0 -15 8 -15
20 0 18 4 -16 37 -36 35 -60 41 -27 7z"/>
<path d="M1785 1480 c0 -8 7 -14 13 -12 7 1 12 -2 12 -6 0 -5 7 -17 15 -28 14
-16 14 -15 0 14 -9 18 -20 30 -25 27 -5 -3 -10 0 -13 7 -2 7 -3 6 -2 -2z"/>
<path d="M1863 1487 c1 -10 6 -17 11 -17 5 1 13 -4 18 -12 8 -11 9 -11 6 0 -2
8 -8 13 -13 12 -5 -1 -13 7 -17 17 -7 17 -8 17 -5 0z"/>
<path d="M1900 1490 c0 -6 5 -10 11 -10 5 0 7 -5 3 -12 -4 -7 -3 -8 4 -4 16
10 15 23 -3 30 -8 3 -15 1 -15 -4z"/>
<path d="M1980 1489 c0 -5 5 -7 10 -4 6 3 10 8 10 11 0 2 -4 4 -10 4 -5 0 -10
-5 -10 -11z"/>
<path d="M2165 1490 c3 -5 8 -10 11 -10 2 0 4 5 4 10 0 6 -5 10 -11 10 -5 0
-7 -4 -4 -10z"/>
<path d="M1953 1475 c-7 -8 -21 -18 -30 -24 -10 -5 -16 -12 -13 -14 3 -3 18 5
35 18 16 13 27 26 25 29 -3 2 -11 -2 -17 -9z"/>
<path d="M2190 1480 c0 -6 7 -13 15 -16 8 -4 13 -9 11 -13 -3 -4 5 -13 17 -21
21 -12 21 -12 7 6 -26 34 -50 55 -50 44z"/>
<path d="M2231 1485 c0 -13 28 -50 33 -44 3 2 -4 15 -14 29 -11 14 -20 21 -19
15z"/>
<path d="M2335 1480 c-3 -5 -1 -10 4 -10 6 0 11 5 11 10 0 6 -2 10 -4 10 -3 0
-8 -4 -11 -10z"/>
<path d="M1540 1469 c0 -5 5 -7 10 -4 6 3 10 8 10 11 0 2 -4 4 -10 4 -5 0 -10
-5 -10 -11z"/>
<path d="M1746 1465 c-20 -15 -20 -15 0 -30 10 -8 22 -15 27 -15 4 0 6 -5 5
-12 -2 -6 6 -13 17 -14 15 -2 16 -2 2 2 -9 3 -15 9 -12 14 3 5 -4 14 -15 20
-11 6 -20 16 -20 22 0 7 5 6 15 -2 10 -9 15 -9 15 -1 0 6 -5 11 -11 11 -5 0
-7 5 -4 10 8 13 4 12 -19 -5z"/>
<path d="M2065 1469 c-4 -6 -4 -13 -1 -16 3 -3 -4 -14 -16 -24 -11 -11 -17
-19 -13 -19 5 0 16 7 26 16 10 9 34 17 53 19 28 1 37 -2 42 -17 3 -11 8 -17
11 -15 8 9 -18 48 -28 42 -5 -4 -9 -1 -9 4 0 6 -5 11 -11 11 -5 0 -7 -4 -4
-10 3 -5 2 -10 -3 -10 -6 0 -12 7 -16 15 -6 17 -22 20 -31 4z m25 -9 c0 -5 -4
-10 -10 -10 -5 0 -10 5 -10 10 0 6 5 10 10 10 6 0 10 -4 10 -10z"/>
<path d="M1515 1460 c-3 -5 -1 -10 4 -10 6 0 11 5 11 10 0 6 -2 10 -4 10 -3 0
-8 -4 -11 -10z"/>
<path d="M2030 1456 c0 -8 -5 -18 -12 -22 -8 -5 -9 -2 -5 9 9 23 0 21 -13 -2
-8 -16 -7 -19 7 -17 20 3 52 46 34 46 -6 0 -11 -6 -11 -14z"/>
<path d="M2317 1459 c7 -7 15 -10 18 -7 3 3 -2 9 -12 12 -14 6 -15 5 -6 -5z"/>
<path d="M1385 1450 c-3 -5 -1 -10 4 -10 6 0 11 5 11 10 0 6 -2 10 -4 10 -3 0
-8 -4 -11 -10z"/>
<path d="M1790 1440 c0 -5 5 -10 11 -10 5 0 7 5 4 10 -3 6 -8 10 -11 10 -2 0
-4 -4 -4 -10z"/>
<path d="M1364 1423 c0 -13 8 -19 26 -20 14 -1 18 1 10 4 -8 4 -20 13 -25 20
-9 12 -11 11 -11 -4z"/>
<path d="M1500 1432 c0 -4 9 -8 20 -9 11 -1 20 2 20 5 0 4 -9 8 -20 9 -11 1
-20 -2 -20 -5z"/>
<path d="M1596 1425 c-3 -8 -13 -12 -23 -11 -10 2 -12 1 -5 -1 7 -3 10 -9 7
-14 -10 -15 7 -10 19 5 9 12 22 3 75 -50 35 -35 58 -64 51 -64 -6 0 -36 24
-65 53 -36 36 -56 49 -59 40 -3 -7 -2 -21 1 -30 6 -16 5 -16 -10 -4 -9 7 -14
17 -11 22 3 5 0 9 -5 9 -17 0 -13 -14 9 -40 32 -37 22 -48 -10 -12 -17 18 -30
28 -30 23 0 -5 14 -23 30 -41 17 -18 30 -37 30 -44 0 -6 -19 8 -41 32 -22 23
-44 42 -49 42 -5 0 14 -22 41 -50 27 -27 49 -55 49 -62 0 -7 -16 4 -36 25 -19
20 -39 37 -44 37 -5 0 9 -18 31 -40 l41 -40 -42 -41 c-23 -23 -40 -42 -38 -44
5 -5 31 17 66 58 17 21 32 31 32 24 0 -18 -84 -109 -93 -100 -4 3 -7 1 -7 -5
0 -23 19 -11 65 40 27 30 44 58 42 67 -3 9 -8 25 -12 36 -7 17 -4 16 17 -5 18
-18 23 -29 16 -37 -7 -9 -7 -13 1 -13 6 0 11 5 11 10 0 6 5 10 10 10 6 0 10
-3 10 -7 -1 -11 -61 -76 -66 -71 -2 3 5 14 16 26 12 12 17 22 12 22 -13 0 -44
-49 -38 -59 8 -13 -21 -34 -35 -25 -8 5 -11 2 -7 -7 8 -20 -20 -58 -30 -42 -5
7 -18 11 -30 8 -12 -2 -22 0 -22 6 0 5 -4 9 -10 9 -5 0 -7 -7 -4 -15 4 -9 15
-13 29 -11 40 7 34 -16 -17 -66 -53 -53 -53 -54 -35 -72 16 -18 167 -184 190
-210 191 -220 423 -469 446 -477 57 -22 101 -4 188 79 108 102 132 162 88 225
-16 23 -592 613 -645 661 -74 67 -100 95 -100 108 0 7 13 0 28 -17 31 -34 69
-66 59 -48 -4 6 -2 14 3 16 6 3 5 4 -2 3 -16 -4 -88 67 -88 86 0 7 13 -1 28
-18 31 -35 72 -60 72 -44 0 5 -5 10 -12 10 -15 0 -88 75 -88 91 0 7 15 -3 34
-23 52 -55 81 -71 104 -59 11 6 23 7 27 3 5 -4 5 -1 1 6 -4 7 -12 9 -18 6 -5
-4 -41 25 -78 64 -44 44 -71 65 -74 57z"/>
<path d="M1886 1431 c-3 -5 1 -11 9 -14 9 -4 12 -1 8 9 -6 16 -10 17 -17 5z"/>
<path d="M1337 1410 c-3 -11 -1 -20 4 -20 5 0 9 9 9 20 0 11 -2 20 -4 20 -2 0
-6 -9 -9 -20z"/>
<path d="M1390 1426 c0 -2 9 -6 20 -9 11 -3 18 -1 14 4 -5 9 -34 13 -34 5z"/>
<path d="M1847 1417 c-3 -8 3 -13 17 -14 11 0 15 1 8 4 -6 3 -10 9 -6 14 3 5
1 9 -4 9 -6 0 -12 -6 -15 -13z"/>
<path d="M2090 1419 c0 -5 5 -7 10 -4 6 3 10 8 10 11 0 2 -4 4 -10 4 -5 0 -10
-5 -10 -11z"/>
<path d="M2120 1426 c0 -2 7 -7 16 -10 8 -3 12 -2 9 4 -6 10 -25 14 -25 6z"/>
<path d="M1817 1400 c10 -11 19 -20 21 -20 1 0 -2 9 -8 20 -6 11 -15 20 -20
20 -6 0 -2 -9 7 -20z"/>
<path d="M1455 1400 c-3 -5 -1 -10 4 -10 6 0 11 5 11 10 0 6 -2 10 -4 10 -3 0
-8 -4 -11 -10z"/>
<path d="M1508 1403 c7 -3 16 -2 19 1 4 3 -2 6 -13 5 -11 0 -14 -3 -6 -6z"/>
<path d="M1291 1374 c-12 -15 -21 -32 -21 -38 1 -6 6 -1 13 12 7 12 16 20 20
17 4 -3 5 -2 2 2 -3 3 0 12 6 20 6 7 9 13 6 13 -3 0 -15 -12 -26 -26z"/>
<path d="M1420 1389 c0 -5 5 -7 10 -4 6 3 10 8 10 11 0 2 -4 4 -10 4 -5 0 -10
-5 -10 -11z"/>
<path d="M1540 1389 c0 -5 5 -7 10 -4 6 3 10 8 10 11 0 2 -4 4 -10 4 -5 0 -10
-5 -10 -11z"/>
<path d="M1370 1370 c0 -11 4 -20 8 -20 4 0 8 9 8 20 0 11 -4 20 -8 20 -4 0
-8 -9 -8 -20z"/>
<path d="M1402 1370 c0 -14 2 -19 5 -12 2 6 2 18 0 25 -3 6 -5 1 -5 -13z"/>
<path d="M1490 1370 c0 -11 4 -20 8 -20 4 0 8 9 8 20 0 11 -4 20 -8 20 -4 0
-8 -9 -8 -20z"/>
<path d="M1522 1370 c0 -14 2 -19 5 -12 2 6 2 18 0 25 -3 6 -5 1 -5 -13z"/>
<path d="M1320 1370 c0 -5 5 -10 10 -10 6 0 10 5 10 10 0 6 -4 10 -10 10 -5 0
-10 -4 -10 -10z"/>
<path d="M1440 1370 c0 -5 5 -10 10 -10 6 0 10 5 10 10 0 6 -4 10 -10 10 -5 0
-10 -4 -10 -10z"/>
<path d="M1804 1371 c4 -5 -6 -18 -20 -29 -21 -15 -24 -21 -13 -27 8 -5 11 -5
7 0 -4 4 4 16 17 27 26 20 33 38 14 38 -5 0 -8 -4 -5 -9z"/>
<path d="M1337 1340 c-9 -11 -13 -20 -7 -20 5 0 14 9 20 20 6 11 9 20 8 20 -2
0 -11 -9 -21 -20z"/>
<path d="M1420 1350 c0 -5 5 -10 11 -10 5 0 7 5 4 10 -3 6 -8 10 -11 10 -2 0
-4 -4 -4 -10z"/>
<path d="M1295 1340 c-3 -5 -3 -10 2 -10 4 0 1 -5 -7 -11 -10 -7 -11 -9 -2 -7
8 2 13 8 12 13 -1 5 7 12 17 16 16 7 16 8 1 8 -9 1 -20 -3 -23 -9z"/>
<path d="M1455 1340 c3 -5 8 -10 11 -10 2 0 4 5 4 10 0 6 -5 10 -11 10 -5 0
-7 -4 -4 -10z"/>
<path d="M1250 1327 c0 -10 -4 -15 -10 -12 -5 3 -10 1 -10 -4 0 -13 10 -14 27
-3 8 5 9 13 3 22 -8 13 -10 12 -10 -3z"/>
<path d="M1367 1323 c3 -7 9 -13 15 -13 5 0 7 4 3 9 -3 5 3 12 12 14 10 3 6 4
-8 4 -18 -1 -25 -6 -22 -14z"/>
<path d="M1480 1324 c0 -8 -4 -12 -10 -9 -5 3 -10 1 -10 -4 0 -6 5 -11 12 -11
6 0 9 -3 5 -6 -3 -3 13 -24 35 -45 l41 -39 -39 -37 c-27 -27 -40 -47 -41 -68
0 -16 1 -22 4 -12 2 9 9 15 14 12 5 -4 9 -1 9 4 0 6 -5 11 -12 11 -7 0 7 19
30 42 23 22 42 44 42 47 0 3 -18 25 -39 48 -28 30 -38 47 -34 62 3 12 3 21 -1
21 -3 0 -6 -7 -6 -16z"/>
<path d="M1433 1310 c-1 -11 16 -37 40 -60 38 -38 40 -42 24 -57 -15 -16 -18
-15 -35 0 -10 9 -22 17 -27 17 -4 0 2 -9 15 -20 13 -11 20 -23 16 -28 -4 -4
-14 2 -22 12 -8 11 -14 15 -14 9 0 -7 5 -15 10 -18 15 -10 12 -23 -7 -28 -13
-3 -14 -5 -3 -6 15 -1 90 64 90 78 0 4 -18 26 -40 49 -26 26 -38 46 -34 56 3
9 2 16 -3 16 -5 0 -9 -9 -10 -20z"/>
<path d="M1338 1296 c-7 -14 -17 -24 -23 -23 -5 1 -11 -7 -12 -18 -3 -18 -2
-18 5 -2 4 10 11 18 15 18 21 -2 30 0 24 5 -3 4 -2 15 4 25 5 11 7 19 5 19 -3
0 -11 -11 -18 -24z"/>
<path d="M1405 1310 c3 -5 8 -10 11 -10 2 0 4 5 4 10 0 6 -5 10 -11 10 -5 0
-7 -4 -4 -10z"/>
<path d="M1500 1310 c0 -5 5 -10 11 -10 5 0 7 5 4 10 -3 6 -8 10 -11 10 -2 0
-4 -4 -4 -10z"/>
<path d="M1310 1299 c0 -5 5 -7 10 -4 6 3 10 8 10 11 0 2 -4 4 -10 4 -5 0 -10
-5 -10 -11z"/>
<path d="M1260 1292 c0 -4 9 -8 20 -9 11 -1 20 2 20 5 0 4 -9 8 -20 9 -11 1
-20 -2 -20 -5z"/>
<path d="M1360 1288 c0 -3 9 -6 20 -5 11 1 20 5 20 9 0 3 -9 6 -20 5 -11 -1
-20 -5 -20 -9z"/>
<path d="M1235 1280 c-3 -5 -1 -10 4 -10 6 0 11 5 11 10 0 6 -2 10 -4 10 -3 0
-8 -4 -11 -10z"/>
<path d="M1410 1280 c0 -5 5 -10 11 -10 5 0 7 5 4 10 -3 6 -8 10 -11 10 -2 0
-4 -4 -4 -10z"/>
<path d="M1255 1260 c-3 -5 -3 -10 2 -11 4 0 -1 -5 -12 -10 -19 -8 -19 -9 -1
-6 11 1 18 6 17 12 -1 5 6 12 16 16 16 7 16 8 1 8 -9 1 -20 -3 -23 -9z"/>
<path d="M1375 1260 c3 -5 8 -10 11 -10 2 0 4 5 4 10 0 6 -5 10 -11 10 -5 0
-7 -4 -4 -10z"/>
<path d="M1710 1255 c0 -8 2 -15 4 -15 2 0 6 7 10 15 3 8 1 15 -4 15 -6 0 -10
-7 -10 -15z"/>
<path d="M1211 1243 c-5 -10 -13 -17 -18 -15 -4 2 -9 -5 -10 -15 -3 -17 -2
-17 5 0 4 10 11 18 15 17 4 0 15 6 23 15 9 8 11 15 5 15 -5 0 -14 -8 -20 -17z"/>
<path d="M1340 1250 c0 -6 5 -8 10 -5 6 3 10 2 10 -3 0 -5 -11 -15 -25 -22
l-24 -13 27 -24 c15 -12 31 -23 36 -23 5 0 -3 9 -18 21 -25 19 -27 39 -5 39 6
0 8 -4 5 -9 -3 -5 1 -14 9 -21 10 -9 15 -9 15 -1 0 6 -4 11 -9 11 -4 0 -8 12
-7 27 1 14 -5 28 -11 30 -7 3 -13 0 -13 -7z"/>
<path d="M1400 1244 c0 -8 -4 -12 -10 -9 -5 3 -10 1 -10 -4 0 -6 4 -11 9 -11
5 0 8 -15 6 -32 -2 -18 -1 -25 1 -15 3 9 10 15 15 12 5 -4 9 -1 9 4 0 6 -4 11
-9 11 -5 0 -7 14 -5 30 3 17 3 30 0 30 -3 0 -6 -7 -6 -16z"/>
<path d="M1451 1229 c17 -17 33 -29 36 -26 6 6 -47 56 -59 57 -4 0 6 -14 23
-31z"/>
<path d="M1279 1243 c-5 -28 -6 -53 -1 -49 2 3 22 -13 43 -34 22 -22 39 -35
39 -30 0 5 -16 24 -37 43 -35 34 -36 35 -15 46 12 7 22 17 22 24 0 7 -3 8 -8
2 -4 -5 -16 -17 -26 -25 -18 -14 -18 -13 -12 8 4 12 5 22 2 22 -3 0 -7 -3 -7
-7z"/>
<path d="M1420 1230 c0 -5 5 -10 11 -10 5 0 7 5 4 10 -3 6 -8 10 -11 10 -2 0
-4 -4 -4 -10z"/>
<path d="M1153 1210 c1 -11 5 -20 9 -20 3 0 6 9 5 20 -1 11 -5 20 -9 20 -3 0
-6 -9 -5 -20z"/>
<path d="M1126 1206 c5 -13 4 -17 -3 -13 -13 8 -24 -18 -17 -38 8 -20 16 -19
37 5 9 11 13 20 7 20 -5 0 -13 -7 -18 -16 -7 -12 -11 -13 -17 -5 -4 7 1 18 11
26 16 11 17 16 6 27 -11 11 -12 10 -6 -6z"/>
<path d="M1210 1210 c-8 -5 -10 -10 -5 -10 6 0 17 5 25 10 8 5 11 10 5 10 -5
0 -17 -5 -25 -10z"/>
<path d="M1250 1207 c0 -9 -5 -16 -12 -14 -6 1 -13 -6 -14 -16 -1 -12 0 -13 3
-2 2 8 9 13 14 9 11 -6 25 24 15 33 -3 4 -6 -1 -6 -10z"/>
<path d="M1175 1180 c-3 -5 -3 -10 2 -11 4 0 -1 -5 -12 -10 -19 -8 -19 -9 -1
-6 11 1 18 6 17 12 -1 5 6 12 16 16 16 7 16 8 1 8 -9 1 -20 -3 -23 -9z"/>
<path d="M1260 1170 c0 -5 4 -9 9 -7 5 1 27 -17 49 -40 22 -23 43 -39 46 -36
3 4 6 1 6 -5 0 -7 5 -12 11 -12 5 0 8 4 4 9 -3 5 0 11 7 14 7 2 5 3 -5 1 -11
-1 -38 16 -65 42 -47 44 -62 52 -62 34z"/>
<path d="M1075 1150 c21 -24 26 -25 19 -6 -3 8 -13 17 -22 21 -13 5 -13 2 3
-15z"/>
<path d="M1195 1149 c-4 -11 -9 -18 -12 -15 -3 3 -19 -9 -34 -27 -16 -17 -29
-26 -29 -19 0 6 9 21 20 32 11 11 16 20 11 20 -6 0 -13 -5 -16 -10 -4 -6 -10
-8 -15 -5 -5 3 -27 -14 -50 -37 -41 -44 -48 -58 -29 -58 5 0 8 3 6 8 -3 4 12
25 34 47 40 40 55 37 19 -5 -11 -13 -20 -25 -20 -28 0 -3 9 3 20 13 20 18 29
8 9 -12 -7 -7 12 -33 67 -87 42 -42 72 -76 64 -76 -7 0 -45 33 -86 74 -40 40
-76 71 -79 68 -3 -3 -5 1 -5 8 0 7 -3 11 -6 7 -3 -3 29 -40 72 -81 43 -42 72
-76 65 -76 -7 0 -29 16 -48 35 -19 19 -39 35 -45 35 -5 0 -7 3 -5 8 2 4 -4 15
-15 25 -10 9 -18 15 -18 12 0 -10 38 -66 44 -65 4 0 19 -11 34 -25 28 -26 24
-32 -10 -14 -15 8 -19 8 -14 0 4 -6 0 -11 -9 -11 -9 0 -13 5 -10 10 3 6 2 10
-3 10 -6 0 -12 -6 -15 -14 -5 -11 2 -14 30 -11 l35 3 -21 -22 c-32 -34 -25
-39 9 -6 17 17 36 30 42 30 7 0 -41 -52 -106 -116 -108 -108 -119 -116 -133
-101 -15 15 -15 18 2 37 18 20 18 21 -11 51 -77 82 -94 99 -94 91 0 -4 25 -34
55 -65 l56 -57 -36 -38 -35 -37 -36 38 c-35 36 -36 40 -20 55 16 16 19 15 37
-7 11 -13 22 -22 24 -19 3 2 -15 25 -40 50 l-45 46 -37 -38 -36 -39 -22 22
c-12 12 -20 25 -18 29 2 4 -4 5 -13 1 -16 -6 -16 -7 3 -16 11 -5 26 -20 34
-33 7 -13 17 -24 22 -24 6 0 8 3 4 6 -3 3 10 22 29 42 18 20 37 32 41 28 4 -4
3 -10 -2 -14 -17 -12 -61 -66 -47 -58 6 4 12 2 12 -3 0 -6 5 -11 12 -11 9 0 9
3 1 11 -9 9 -5 18 12 37 14 14 27 23 31 19 3 -3 -1 -13 -10 -22 -9 -9 -16 -20
-16 -25 0 -4 35 -42 77 -84 42 -42 71 -76 65 -76 -7 0 -42 29 -79 65 -36 36
-70 65 -75 65 -5 0 22 -29 59 -65 37 -36 63 -65 56 -65 -7 0 -23 10 -35 23
-41 38 -68 60 -68 54 0 -3 17 -22 38 -41 20 -20 32 -36 25 -36 -7 0 -26 13
-42 29 -24 24 -29 26 -28 11 1 -10 4 -17 8 -14 4 2 13 -3 20 -12 11 -13 9 -14
-13 -9 -19 5 -29 2 -36 -12 -6 -10 -14 -17 -19 -15 -4 2 -9 -4 -9 -13 -2 -13
-1 -13 3 0 2 8 9 13 14 9 5 -3 12 2 15 10 3 9 14 16 23 16 14 0 14 -2 1 -11
-16 -12 -11 -11 35 7 11 4 -17 -29 -62 -74 -45 -45 -77 -82 -71 -82 7 0 -12
-22 -40 -50 -29 -27 -47 -50 -42 -50 13 0 102 92 95 98 -3 3 13 22 34 43 21
21 36 41 33 44 -3 3 0 5 6 5 7 0 26 15 42 32 l30 33 40 -43 c39 -42 95 -66 83
-35 -3 9 -9 10 -17 4 -7 -6 -25 5 -55 35 -24 24 -38 44 -31 44 7 0 27 -15 46
-34 29 -29 36 -32 51 -20 10 7 25 13 33 13 11 0 10 -3 -4 -14 -11 -8 -17 -17
-14 -20 2 -3 14 6 26 18 20 21 20 24 5 25 -10 0 -28 -4 -40 -10 -17 -9 -26 -6
-50 16 -29 27 -26 34 9 15 15 -8 19 -8 14 0 -4 6 -3 11 2 11 6 0 44 35 86 77
42 42 76 71 76 65 0 -7 -29 -42 -65 -79 -36 -36 -65 -70 -65 -75 0 -5 29 22
65 59 36 37 65 63 65 56 0 -6 -7 -19 -16 -27 -8 -9 -11 -16 -5 -16 6 0 17 13
26 29 16 31 61 71 79 71 6 -1 0 -10 -13 -20 -13 -11 -19 -20 -14 -20 6 0 18 9
28 20 10 11 15 20 11 20 -4 0 5 12 21 28 15 15 32 26 38 24 6 -2 6 1 -1 8 -8
8 -20 2 -46 -24 -20 -20 -42 -36 -49 -36 -7 0 7 18 30 41 l41 41 -25 20 c-31
24 -19 32 -166 -116 -91 -91 -99 -97 -115 -82 -9 9 -14 20 -10 23 3 4 11 2 16
-3 7 -7 49 28 130 108 l119 119 43 -41 c24 -22 46 -40 51 -40 4 0 -14 20 -40
45 -47 43 -49 65 -3 25 13 -11 27 -20 33 -20 5 0 -1 9 -14 20 -13 10 -19 19
-13 20 5 0 15 -5 22 -12 9 -9 12 -9 12 0 0 7 -5 12 -11 12 -6 0 -47 36 -91 79
l-79 80 50 51 c28 29 51 56 51 61 0 16 -8 10 -15 -12z m15 -315 c0 -4 -20 -27
-45 -51 -25 -25 -42 -50 -38 -56 3 -5 1 -7 -5 -3 -6 3 -44 -28 -85 -70 l-75
-76 -38 36 c-34 32 -36 36 -20 52 9 9 20 14 23 10 4 -3 2 -11 -5 -18 -8 -8 -5
-16 13 -30 14 -11 29 -16 35 -13 6 4 59 55 118 115 99 101 122 121 122 104z
m20 -22 c0 -4 -16 -22 -35 -40 -20 -18 -34 -36 -32 -40 3 -4 -7 -18 -21 -32
-21 -22 -24 -22 -18 -5 4 11 8 25 9 30 2 13 79 94 90 95 4 0 7 -3 7 -8z"/>
<path d="M1189 1108 l-56 -59 33 -33 34 -34 40 40 c22 23 40 45 40 50 0 4 19
-10 42 -32 60 -56 59 -42 -2 19 l-50 51 -35 -37 c-19 -20 -38 -34 -41 -30 -4
4 11 25 33 47 22 21 38 42 35 45 -3 3 1 5 8 5 7 0 11 3 7 6 -3 3 -28 -17 -54
-44 -42 -43 -47 -53 -37 -67 11 -15 17 -12 53 27 23 23 41 37 41 30 0 -6 -18
-31 -40 -54 l-40 -43 -26 29 -27 28 42 39 c22 21 38 39 34 39 -4 0 2 6 13 14
10 8 17 16 14 19 -3 2 -30 -22 -61 -55z"/>
<path d="M1410 1160 c0 -5 5 -10 11 -10 5 0 7 5 4 10 -3 6 -8 10 -11 10 -2 0
-4 -4 -4 -10z"/>
<path d="M1027 1122 c-15 -16 -27 -32 -27 -37 0 -5 12 5 26 23 15 17 31 29 36
26 5 -3 -9 -23 -31 -45 -28 -28 -45 -37 -58 -32 -10 3 -15 3 -11 -2 4 -4 19
-9 34 -11 14 -1 23 0 20 3 -3 3 2 13 12 22 44 41 53 58 39 69 -11 9 -20 5 -40
-16z"/>
<path d="M1373 1130 c-1 -11 2 -20 5 -20 4 0 8 9 9 20 1 11 -2 20 -5 20 -4 0
-8 -9 -9 -20z"/>
<path d="M1401 1124 c0 -11 3 -14 6 -6 3 7 2 16 -1 19 -3 4 -6 -2 -5 -13z"/>
<path d="M1296 1108 c10 -12 37 -39 59 -60 38 -35 39 -38 23 -54 -17 -17 -18
-17 -35 2 -26 28 -63 58 -63 51 0 -3 16 -21 37 -40 35 -34 36 -35 15 -46 -12
-7 -22 -16 -22 -22 0 -5 10 -1 22 11 12 11 25 20 29 20 4 0 23 16 42 37 34 35
35 36 46 15 7 -12 16 -22 22 -22 5 0 1 10 -11 22 -11 12 -20 29 -21 37 0 14
-1 14 -6 1 -7 -17 -29 -40 -38 -40 -3 0 -3 9 0 20 4 12 2 20 -5 20 -6 0 -8 -4
-5 -10 15 -24 -11 -7 -53 35 -47 47 -69 61 -36 23z"/>
<path d="M1420 1108 c0 -3 9 -6 20 -5 11 1 20 5 20 9 0 3 -9 6 -20 5 -11 -1
-20 -5 -20 -9z"/>
<path d="M1570 1109 c0 -5 5 -7 10 -4 6 3 10 8 10 11 0 2 -4 4 -10 4 -5 0 -10
-5 -10 -11z"/>
<path d="M1438 1083 c7 -3 16 -2 19 1 4 3 -2 6 -13 5 -11 0 -14 -3 -6 -6z"/>
<path d="M1490 1080 c0 -5 5 -10 11 -10 5 0 7 5 4 10 -3 6 -8 10 -11 10 -2 0
-4 -4 -4 -10z"/>
<path d="M1405 1070 c3 -5 8 -10 11 -10 2 0 4 5 4 10 0 6 -5 10 -11 10 -5 0
-7 -4 -4 -10z"/>
<path d="M1525 1070 c3 -5 8 -10 11 -10 2 0 4 5 4 10 0 6 -5 10 -11 10 -5 0
-7 -4 -4 -10z"/>
<path d="M945 1039 c9 -13 -35 -60 -48 -52 -6 3 -7 1 -3 -6 9 -14 24 -5 50 27
17 21 20 22 28 8 5 -9 14 -16 20 -16 6 0 -1 11 -16 25 -28 26 -42 33 -31 14z"/>
<path d="M1003 1024 c9 -3 15 -10 12 -15 -4 -5 5 -14 19 -20 14 -7 23 -15 20
-20 -2 -4 2 -11 9 -16 8 -4 17 -15 20 -23 4 -12 6 -11 6 3 1 10 -6 20 -14 23
-8 4 -13 10 -10 15 3 4 -6 14 -19 21 -14 7 -25 18 -25 23 0 6 -8 11 -18 12
-17 2 -17 1 0 -3z"/>
<path d="M1245 1005 c-28 -29 -29 -33 -15 -55 8 -13 12 -12 25 8 9 12 21 19
27 16 7 -4 8 -2 4 4 -9 15 -11 15 -31 -4 -9 -9 -19 -13 -22 -10 -4 4 5 18 20
32 26 24 33 34 22 34 -2 0 -16 -11 -30 -25z"/>
<path d="M1478 1023 c7 -3 16 -2 19 1 4 3 -2 6 -13 5 -11 0 -14 -3 -6 -6z"/>
<path d="M1045 1010 c3 -5 8 -10 11 -10 2 0 4 5 4 10 0 6 -5 10 -11 10 -5 0
-7 -4 -4 -10z"/>
<path d="M1400 979 c-19 -21 -38 -35 -42 -33 -4 3 -8 0 -8 -5 0 -19 15 -12 50
24 32 33 36 34 47 18 7 -9 13 -13 13 -7 0 5 -6 16 -13 25 -11 14 -16 11 -47
-22z"/>
<path d="M1295 990 c18 -20 18 -21 -1 -26 -11 -3 -25 -13 -31 -23 -9 -14 -7
-20 9 -30 11 -7 17 -8 13 -2 -3 6 -1 11 4 11 6 0 11 5 11 11 0 8 -5 8 -15 -1
-9 -8 -15 -9 -15 -2 0 6 13 19 29 28 l30 18 -21 18 c-28 24 -36 23 -13 -2z"/>
<path d="M947 988 c-4 -14 32 -68 45 -68 5 0 -2 12 -16 27 -14 15 -22 31 -19
36 3 5 10 2 15 -7 6 -10 18 -15 33 -12 18 3 26 -1 30 -15 4 -12 9 -18 12 -16
8 9 -18 48 -28 42 -5 -4 -9 -1 -9 4 0 6 -5 11 -11 11 -5 0 -7 -4 -4 -10 3 -5
2 -10 -3 -10 -6 0 -12 7 -16 15 -7 18 -23 20 -29 3z"/>
<path d="M1410 953 c-14 -14 -34 -29 -45 -33 -13 -6 -15 -9 -5 -9 16 0 87 56
79 62 -2 3 -15 -7 -29 -20z"/>
<path d="M860 950 c-6 -11 -15 -18 -21 -15 -5 4 -9 1 -9 -4 0 -18 18 -12 34
11 15 21 17 21 33 5 16 -15 16 -18 -2 -37 -20 -22 -19 -23 41 -86 22 -23 66
-27 70 -6 1 7 0 8 -3 2 -2 -5 -9 -10 -14 -10 -6 0 -7 5 -4 10 3 6 1 10 -4 10
-6 0 -11 -6 -11 -12 0 -7 -18 6 -41 29 -36 38 -39 45 -25 58 20 20 29 19 22
-3 -9 -26 23 -58 59 -59 17 0 22 1 12 4 -9 2 -15 9 -12 14 4 5 1 9 -4 9 -6 0
-11 -5 -11 -12 0 -7 -10 -3 -22 9 -18 18 -19 24 -9 37 14 16 31 13 31 -5 0 -6
-4 -7 -10 -4 -5 3 -10 2 -10 -4 0 -14 53 -8 58 7 2 6 -1 12 -8 12 -6 0 -8 -4
-5 -10 3 -5 1 -10 -4 -10 -6 0 -11 4 -11 8 0 10 -59 79 -60 70 0 -4 7 -14 16
-23 9 -9 13 -19 10 -22 -4 -4 -18 5 -32 20 -30 32 -40 34 -54 7z"/>
<path d="M1003 942 c10 -4 18 -12 17 -17 0 -6 7 -11 17 -12 17 -3 17 -2 0 5
-10 4 -18 12 -17 17 0 6 -7 11 -17 12 -17 3 -17 2 0 -5z"/>
<path d="M857 912 c-15 -14 -27 -21 -27 -14 0 6 -5 12 -11 12 -5 0 -8 -4 -5
-9 5 -8 -30 -25 -47 -22 -4 1 -11 -7 -14 -16 -4 -10 -13 -24 -20 -31 -23 -24
-14 -32 10 -9 13 12 21 28 19 35 -3 8 2 10 12 6 9 -3 16 -2 16 4 0 5 10 12 22
15 17 5 35 -7 83 -56 46 -47 68 -63 90 -64 17 0 22 1 12 4 -9 2 -15 9 -12 14
4 5 2 9 -4 9 -5 0 -11 -5 -13 -11 -2 -6 -30 17 -61 51 l-58 61 22 20 c12 10
20 21 18 24 -3 2 -17 -8 -32 -23z"/>
<path d="M1060 926 c0 -8 4 -17 9 -20 5 -4 7 3 4 14 -6 23 -13 26 -13 6z"/>
<path d="M1330 927 c0 -9 -5 -16 -11 -14 -6 1 -13 -4 -14 -11 -2 -7 -1 -8 2
-2 2 5 9 8 14 4 11 -6 25 24 15 33 -3 4 -6 -1 -6 -10z"/>
<path d="M1028 882 c4 -11 7 -12 10 -4 2 7 8 12 13 12 6 0 7 -4 4 -10 -3 -5
-1 -10 5 -10 21 0 4 25 -17 26 -15 1 -20 -3 -15 -14z"/>
<path d="M1330 890 c-12 -7 -10 -9 8 -7 12 0 22 5 22 9 0 11 -12 10 -30 -2z"/>
<path d="M1005 870 c-3 -5 -1 -10 4 -10 6 0 11 5 11 10 0 6 -2 10 -4 10 -3 0
-8 -4 -11 -10z"/>
<path d="M1300 872 c0 -15 39 -22 47 -9 3 7 3 9 -2 5 -4 -4 -16 -3 -26 3 -11
5 -19 6 -19 1z"/>
<path d="M815 860 c3 -5 8 -10 11 -10 2 0 4 5 4 10 0 6 -5 10 -11 10 -5 0 -7
-4 -4 -10z"/>
<path d="M1090 859 c0 -5 5 -7 10 -4 6 3 10 8 10 11 0 2 -4 4 -10 4 -5 0 -10
-5 -10 -11z"/>
<path d="M1038 853 c7 -3 16 -2 19 1 4 3 -2 6 -13 5 -11 0 -14 -3 -6 -6z"/>
<path d="M1076 837 c1 -10 -11 -32 -27 -49 -40 -42 -37 -54 4 -15 19 18 32 35
30 40 -2 4 1 7 6 7 6 0 11 5 11 11 0 5 -4 8 -9 4 -5 -3 -11 0 -14 7 -2 7 -3 5
-1 -5z"/>
<path d="M758 814 c-33 -33 -37 -34 -47 -17 -6 10 -11 15 -11 10 0 -4 5 -16
12 -26 10 -17 14 -16 48 20 20 21 40 36 43 32 4 -3 7 -1 7 5 0 20 -15 13 -52
-24z"/>
<path d="M1313 835 c0 -8 4 -12 9 -9 5 3 6 10 3 15 -9 13 -12 11 -12 -6z"/>
<path d="M820 832 c0 -7 5 -12 12 -12 6 0 9 -3 5 -6 -3 -3 13 -24 36 -45 39
-38 40 -40 23 -57 -16 -16 -18 -16 -37 7 -11 13 -21 22 -24 19 -2 -2 7 -17 20
-32 l25 -29 20 23 c11 13 20 26 20 29 0 12 -100 115 -100 103z"/>
<path d="M1020 832 c0 -4 9 -8 20 -9 11 -1 20 2 20 5 0 4 -9 8 -20 9 -11 1
-20 -2 -20 -5z"/>
<path d="M1285 830 c3 -5 8 -10 11 -10 2 0 4 5 4 10 0 6 -5 10 -11 10 -5 0 -7
-4 -4 -10z"/>
<path d="M1030 799 c0 -5 5 -7 10 -4 6 3 10 8 10 11 0 2 -4 4 -10 4 -5 0 -10
-5 -10 -11z"/>
<path d="M1005 790 c-3 -5 -1 -10 4 -10 6 0 11 5 11 10 0 6 -2 10 -4 10 -3 0
-8 -4 -11 -10z"/>
<path d="M658 758 c5 -5 16 -8 23 -6 8 3 3 7 -10 11 -17 4 -21 3 -13 -5z"/>
<path d="M637 746 c4 -11 2 -17 -3 -13 -6 3 -16 1 -24 -4 -11 -7 -7 -8 13 -5
15 3 27 0 27 -5 0 -5 4 -9 8 -9 5 0 9 7 9 15 0 8 -3 13 -5 10 -3 -3 -11 3 -19
13 -12 16 -13 16 -6 -2z"/>
<path d="M970 739 c0 -5 5 -7 10 -4 6 3 10 8 10 11 0 2 -4 4 -10 4 -5 0 -10
-5 -10 -11z"/>
<path d="M976 717 c-15 -16 -26 -30 -25 -32 6 -6 61 45 57 53 -2 4 -16 -6 -32
-21z"/>
<path d="M680 725 c0 -8 2 -15 4 -15 2 0 6 7 10 15 3 8 1 15 -4 15 -6 0 -10
-7 -10 -15z"/>
<path d="M700 710 c0 -5 5 -10 11 -10 5 0 7 5 4 10 -3 6 -8 10 -11 10 -2 0 -4
-4 -4 -10z"/>
<path d="M586 697 c5 -13 14 -17 35 -13 16 2 29 0 29 -5 0 -5 5 -9 11 -9 5 0
8 4 4 9 -3 5 3 12 12 15 10 2 3 3 -14 1 -18 -2 -33 1 -33 6 0 5 -5 9 -11 9 -5
0 -7 -4 -4 -10 9 -14 -9 -12 -24 3 -10 10 -11 8 -5 -6z"/>
<path d="M735 700 c3 -5 8 -10 11 -10 2 0 4 5 4 10 0 6 -5 10 -11 10 -5 0 -7
-4 -4 -10z"/>
<path d="M760 684 c0 -8 -4 -12 -10 -9 -5 3 -10 2 -10 -3 0 -23 26 -18 28 4 1
13 0 24 -3 24 -3 0 -5 -7 -5 -16z"/>
<path d="M713 670 c-1 -11 2 -20 5 -20 4 0 8 9 9 20 1 11 -2 20 -5 20 -4 0 -8
-9 -9 -20z"/>
<path d="M550 676 c0 -2 7 -6 15 -10 8 -3 15 -1 15 4 0 6 -7 10 -15 10 -8 0
-15 -2 -15 -4z"/>
<path d="M685 670 c3 -5 8 -10 11 -10 2 0 4 5 4 10 0 6 -5 10 -11 10 -5 0 -7
-4 -4 -10z"/>
<path d="M780 670 c0 -5 5 -10 11 -10 5 0 7 5 4 10 -3 6 -8 10 -11 10 -2 0 -4
-4 -4 -10z"/>
<path d="M1142 659 c-18 -29 -11 -30 15 -2 12 13 17 23 10 23 -7 0 -18 -9 -25
-21z"/>
<path d="M594 658 c2 -7 15 -13 29 -12 15 1 27 -3 27 -7 0 -5 5 -9 11 -9 5 0
7 5 4 10 -3 6 -2 10 4 10 5 0 12 -5 14 -10 3 -6 4 -5 3 2 -2 7 -15 13 -29 12
-15 -1 -27 3 -27 7 0 5 -5 9 -11 9 -5 0 -7 -4 -4 -10 3 -5 2 -10 -4 -10 -5 0
-12 5 -14 10 -3 6 -4 5 -3 -2z"/>
<path d="M550 651 c0 -5 5 -13 10 -16 6 -3 10 -2 10 4 0 5 -4 13 -10 16 -5 3
-10 2 -10 -4z"/>
<path d="M551 610 c23 -22 37 -40 32 -40 -6 0 5 -16 24 -35 l36 -36 19 21 c10
11 14 20 9 20 -6 0 -14 -7 -19 -15 -7 -13 -12 -11 -33 12 -14 15 -25 33 -26
38 -3 14 -64 75 -75 75 -5 0 10 -18 33 -40z"/>
<path d="M730 641 c-8 -6 -18 -7 -22 -5 -4 3 -8 0 -8 -5 0 -15 13 -14 36 4 21
16 17 20 -6 6z"/>
<path d="M768 639 c-10 -5 -18 -18 -17 -27 0 -14 2 -14 6 -2 4 8 13 20 22 27
19 15 13 16 -11 2z"/>
<path d="M580 630 c0 -5 5 -10 11 -10 5 0 7 5 4 10 -3 6 -8 10 -11 10 -2 0 -4
-4 -4 -10z"/>
<path d="M503 610 c-1 -10 6 -24 15 -31 14 -11 15 -11 5 1 -21 23 -15 35 7 15
11 -10 17 -21 15 -25 -3 -5 18 -32 47 -60 48 -48 53 -50 65 -34 7 10 15 15 18
12 3 -3 -3 -16 -14 -29 l-19 -24 -61 62 c-34 34 -61 60 -61 57 0 -2 -8 4 -18
14 -11 9 -17 20 -16 23 2 3 -3 6 -11 6 -8 0 -15 -4 -15 -9 0 -4 5 -8 12 -8 6
0 2 -10 -9 -22 -23 -26 -50 -73 -36 -65 4 3 16 -6 26 -19 18 -25 18 -25 -6
-19 -14 4 -28 2 -31 -3 -4 -6 3 -8 16 -5 16 3 19 2 10 -4 -7 -5 -15 -23 -18
-39 -3 -21 -2 -25 5 -14 5 8 8 17 5 22 -3 4 6 14 20 23 14 9 23 22 20 29 -10
26 36 13 65 -20 17 -19 37 -34 43 -34 6 0 -7 -18 -30 -39 -22 -21 -38 -42 -35
-45 4 -3 1 -6 -5 -6 -7 0 -12 -5 -12 -11 0 -5 5 -7 10 -4 6 3 10 2 10 -4 0 -5
-8 -15 -17 -20 -10 -6 -13 -10 -8 -11 21 0 38 18 32 34 -4 11 7 31 32 57 l38
41 -54 55 c-30 30 -57 52 -61 49 -3 -3 1 -6 8 -6 19 0 3 -13 -20 -17 -25 -4
-25 2 -1 29 l20 21 44 -44 c59 -59 87 -83 87 -76 0 5 -53 60 -104 106 l-26 24
-25 -23 c-29 -27 -34 -13 -6 18 10 12 22 18 26 14 5 -4 5 -1 1 6 -16 27 7 9
80 -62 l76 -75 24 27 c13 15 24 31 24 35 0 5 4 6 9 2 10 -6 36 33 28 42 -3 2
-8 -4 -12 -16 -4 -14 -12 -18 -31 -15 -16 3 -26 -1 -31 -11 -4 -13 -15 -6 -51
31 -26 26 -47 54 -48 61 -2 8 -4 16 -6 17 -2 0 -12 9 -23 18 -20 16 -21 16
-22 -2z"/>
<path d="M620 615 c7 -8 16 -12 21 -9 5 3 9 0 9 -5 0 -6 5 -11 11 -11 5 0 8 4
4 9 -3 5 3 12 12 15 10 2 3 3 -14 1 -18 -2 -33 1 -33 6 0 5 -5 9 -11 9 -8 0
-8 -5 1 -15z"/>
<path d="M720 610 c-13 -8 -12 -10 3 -10 9 0 17 5 17 10 0 12 -1 12 -20 0z"/>
<path d="M767 601 c-4 -17 -3 -21 5 -13 5 5 8 16 6 23 -3 8 -7 3 -11 -10z"/>
<path d="M1058 595 c-26 -34 -22 -43 5 -12 22 26 45 38 32 17 -9 -14 1 -12 13
3 8 10 6 13 -11 14 -13 1 -29 -8 -39 -22z"/>
<path d="M609 591 c12 -11 22 -22 21 -25 -1 -4 1 -12 4 -19 3 -8 9 -7 19 6 15
18 32 24 22 7 -3 -5 -1 -10 5 -10 21 0 4 25 -19 26 -12 1 -30 9 -40 18 -9 9
-21 16 -26 16 -4 0 2 -9 14 -19z m41 -31 c0 -5 -2 -10 -4 -10 -3 0 -8 5 -11
10 -3 6 -1 10 4 10 6 0 11 -4 11 -10z"/>
<path d="M685 590 c3 -5 8 -10 11 -10 2 0 4 5 4 10 0 6 -5 10 -11 10 -5 0 -7
-4 -4 -10z"/>
<path d="M708 578 c-5 -11 0 -15 15 -14 21 1 38 26 17 26 -6 0 -8 -4 -5 -10 3
-5 2 -10 -4 -10 -5 0 -11 5 -13 12 -3 8 -6 7 -10 -4z"/>
<path d="M1015 560 c-3 -5 -1 -10 4 -10 6 0 11 5 11 10 0 6 -2 10 -4 10 -3 0
-8 -4 -11 -10z"/>
<path d="M966 543 c-6 -14 -5 -15 5 -6 7 7 10 15 7 18 -3 3 -9 -2 -12 -12z"/>
<path d="M695 540 c-3 -5 -3 -10 2 -11 4 0 -1 -5 -12 -10 -19 -8 -19 -9 -1 -6
11 1 18 6 17 12 -1 5 6 12 16 16 16 7 16 8 1 8 -9 1 -20 -3 -23 -9z"/>
<path d="M780 529 c0 -5 5 -7 10 -4 6 3 10 8 10 11 0 2 -4 4 -10 4 -5 0 -10
-5 -10 -11z"/>
<path d="M861 523 c8 -9 27 -30 43 -45 16 -16 26 -32 22 -36 -4 -4 -16 3 -26
15 l-18 23 -34 -34 c-28 -28 -31 -35 -19 -46 11 -11 13 -11 9 0 -4 14 29 60
44 60 5 0 18 -15 29 -32 12 -18 19 -25 15 -16 -3 10 1 21 10 26 12 7 6 17 -31
55 -44 46 -71 64 -44 30z"/>
<path d="M717 478 c-27 -27 -50 -55 -51 -63 -1 -8 -30 -41 -64 -74 -34 -34
-58 -61 -53 -61 14 0 131 121 126 130 -3 5 5 16 17 24 12 9 18 16 13 16 -6 0
4 9 20 20 17 11 26 20 21 20 -6 0 -1 6 10 14 10 8 17 16 14 19 -3 2 -27 -18
-53 -45z"/>
<path d="M791 471 c-49 -52 -67 -81 -51 -81 5 0 10 5 10 11 0 16 89 103 97 95
4 -3 -10 -22 -30 -41 -37 -35 -47 -55 -26 -55 5 0 8 4 5 9 -3 5 7 19 22 32 36
31 44 43 36 63 -9 22 -13 20 -63 -33z"/>
<path d="M473 434 c-12 -13 -18 -24 -12 -24 5 0 1 -10 -11 -22 -12 -13 -17
-25 -11 -31 13 -13 101 51 94 69 -9 25 -26 17 -22 -12 1 -8 -54 -54 -65 -54
-5 0 1 11 14 25 13 14 19 25 14 25 -5 0 -4 4 1 8 6 4 16 15 24 25 20 25 -1 19
-26 -9z"/>
<path d="M862 415 c-7 -15 -8 -25 -2 -25 6 0 10 7 10 15 0 8 5 15 10 15 6 0 9
-5 8 -11 -2 -6 4 -14 12 -16 12 -4 12 -3 2 5 -8 5 -13 12 -13 16 5 34 -12 35
-27 1z"/>
<path d="M518 376 c-20 -19 -38 -32 -41 -30 -2 3 -4 -7 -4 -21 0 -14 4 -28 10
-32 6 -4 8 0 4 11 -5 12 5 30 33 58 37 38 45 48 37 48 -2 0 -19 -15 -39 -34z"/>
<path d="M591 370 c-22 -22 -37 -40 -32 -40 4 0 26 18 49 40 22 22 37 40 32
40 -5 0 -27 -18 -49 -40z"/>
<path d="M805 390 c-3 -5 -1 -10 4 -10 6 0 11 5 11 10 0 6 -2 10 -4 10 -3 0
-8 -4 -11 -10z"/>
<path d="M770 379 c0 -5 5 -7 10 -4 6 3 10 8 10 11 0 2 -4 4 -10 4 -5 0 -10
-5 -10 -11z"/>
<path d="M678 337 c-27 -31 -43 -41 -65 -40 -15 0 -20 -1 -10 -4 9 -2 15 -9
12 -14 -4 -5 -1 -9 4 -9 6 0 11 5 11 11 0 5 3 8 8 6 4 -2 28 18 54 45 26 26
41 48 35 47 -7 -1 -28 -20 -49 -42z"/>
<path d="M756 357 c1 -11 -15 -37 -37 -60 -38 -41 -47 -61 -31 -71 5 -3 43 29
86 71 42 41 79 73 83 70 3 -4 -20 -32 -51 -63 -31 -31 -55 -59 -53 -60 2 -2
34 27 70 65 61 63 65 69 41 69 -18 0 -45 -21 -100 -77 -41 -41 -74 -69 -74
-62 0 8 18 31 39 52 22 20 37 40 34 43 -4 3 -1 6 5 6 7 0 12 5 12 11 0 5 -4 8
-9 4 -5 -3 -11 0 -14 7 -2 7 -3 5 -1 -5z"/>
<path d="M790 359 c0 -5 5 -7 10 -4 6 3 10 8 10 11 0 2 -4 4 -10 4 -5 0 -10
-5 -10 -11z"/>
<path d="M725 350 c-3 -5 -1 -10 4 -10 6 0 11 5 11 10 0 6 -2 10 -4 10 -3 0
-8 -4 -11 -10z"/>
<path d="M674 292 c-37 -37 -38 -39 -21 -57 9 -10 17 -13 17 -7 0 6 -5 14 -10
17 -6 4 7 24 29 46 22 21 37 39 32 39 -4 0 -25 -17 -47 -38z"/>
<path d="M540 309 c0 -5 5 -7 10 -4 6 3 10 8 10 11 0 2 -4 4 -10 4 -5 0 -10
-5 -10 -11z"/>
<path d="M580 269 c0 -5 5 -7 10 -4 6 3 10 8 10 11 0 2 -4 4 -10 4 -5 0 -10
-5 -10 -11z"/>
<path d="M530 259 c0 -5 5 -7 10 -4 6 3 10 8 10 11 0 2 -4 4 -10 4 -5 0 -10
-5 -10 -11z"/>
<path d="M557 250 c-3 -11 -1 -20 4 -20 5 0 9 9 9 20 0 11 -2 20 -4 20 -2 0
-6 -9 -9 -20z"/>
<path d="M600 250 c0 -5 5 -10 10 -10 6 0 10 5 10 10 0 6 -4 10 -10 10 -5 0
-10 -4 -10 -10z"/>
<path d="M625 230 c-3 -5 -12 -7 -20 -3 -8 3 -15 3 -15 0 0 -13 30 -14 40 -1
7 8 10 14 7 14 -3 0 -8 -4 -12 -10z"/>
</g>
</svg>
